<?xml version="1.0" encoding="UTF-8" standalone="no"?>
<svg width="245px" height="222px" viewBox="0 0 245 222" version="1.1" xmlns="http://www.w3.org/2000/svg" xmlns:xlink="http://www.w3.org/1999/xlink">
    <!-- Generator: Sketch 39.1 (31720) - http://www.bohemiancoding.com/sketch -->
    <title>emc-hackathon-sticker</title>
    <desc>Created with Sketch.</desc>
    <defs>
        <path d="M137.613075,139.542857 L84.4603211,139.542857 L84.4603211,178.401564 L149.523316,178.401564 L149.523316,151.990799 L137.613075,151.990799 L137.613075,139.542857 Z M125.757913,151.990799 L137.693566,151.990799 L137.693566,164.675347 L125.757913,164.675347 L125.757913,151.990799 Z" id="path-1"></path>
        <mask id="mask-2" maskContentUnits="userSpaceOnUse" maskUnits="objectBoundingBox" x="-11.2" y="-11.2" width="87.4629949" height="61.2587067">
            <rect x="73.2603211" y="128.342857" width="87.4629949" height="61.2587067" fill="white"></rect>
            <use xlink:href="#path-1" fill="black"></use>
        </mask>
        <path d="M149.523316,40.3804276 L149.523316,13.9542857 L84.4603211,13.9542857 L84.4603211,52.8129924 L138.138713,52.8129924 L138.138713,40.3804276 L149.523316,40.3804276 Z M126.203059,28.4671541 L138.138713,28.4671541 L138.138713,41.1517022 L126.203059,41.1517022 L126.203059,28.4671541 Z" id="path-3"></path>
        <mask id="mask-4" maskContentUnits="userSpaceOnUse" maskUnits="objectBoundingBox" x="-11.2" y="-11.2" width="87.4629949" height="61.2587067">
            <rect x="73.2603211" y="2.75428571" width="87.4629949" height="61.2587067" fill="white"></rect>
            <use xlink:href="#path-3" fill="black"></use>
        </mask>
        <rect id="path-5" x="196.170166" y="46.9371429" width="12.6837018" height="12.6845481"></rect>
        <mask id="mask-6" maskContentUnits="userSpaceOnUse" maskUnits="objectBoundingBox" x="-11.2" y="-11.2" width="35.0837018" height="35.0845481">
            <rect x="184.970166" y="35.7371429" width="35.0837018" height="35.0845481" fill="white"></rect>
            <use xlink:href="#path-5" fill="black"></use>
        </mask>
    </defs>
    <g id="Tile-View" stroke="none" stroke-width="1" fill="none" fill-rule="evenodd">
        <g id="Desktop-Copy-15" transform="translate(-389.000000, -77.000000)">
            <g id="emc-hackathon-sticker" transform="translate(389.000000, 77.000000)">
                <path d="M22.2582486,6.00130894 C22.2582486,2.68687753 24.9472426,0 28.2577101,0 L238.409046,0 C241.722457,0 244.408508,2.6902472 244.408508,6.00016177 L244.408508,33.3651954 C244.408508,36.6789932 241.720719,39.3653571 238.409809,39.3653571 L225.367057,39.3653571 L225.367057,69.2392385 C225.367057,72.5559194 222.674922,75.2446205 219.373053,75.2446205 L212.672756,75.2446205 L212.672756,148.918393 L225.715509,148.918393 C229.028498,148.918393 231.714207,151.602143 231.714207,154.917033 L231.714207,199.165714 L22.2582486,199.165714 L22.2582486,6.00130894 Z" id="Rectangle-2418-Copy-2" fill="#FFFFFF"></path>
                <rect id="Rectangle-2367-Copy-4" fill="#FFFFFF" x="0.677937704" y="181.405714" width="242.46114" height="40.5942857" rx="6"></rect>
                <path d="M187.906025,205.027074 C188.28348,204.130452 189.174508,203.181283 190.579136,202.179539 C191.79813,201.307651 192.587061,200.683117 192.945952,200.305917 C193.496665,199.718475 193.772018,199.07539 193.772018,198.376643 C193.772018,197.807752 193.614232,197.334713 193.298654,196.957514 C192.983077,196.580314 192.531376,196.391717 191.943536,196.391717 C191.139123,196.391717 190.591512,196.691617 190.300686,197.291427 C190.133616,197.637708 190.034613,198.188041 190.003674,198.94244 L187.432661,198.94244 C187.475976,197.798474 187.683264,196.874039 188.054531,196.169108 C188.759939,194.827267 190.012947,194.156356 191.813593,194.156356 C193.236784,194.156356 194.369132,194.550555 195.210671,195.338964 C196.05221,196.127373 196.472973,197.17084 196.472973,198.469397 C196.472973,199.464957 196.175964,200.349198 195.581936,201.122149 C195.192106,201.635388 194.551679,202.207362 193.660638,202.83809 L192.602532,203.589394 C191.940439,204.059347 191.48719,204.39944 191.242772,204.609683 C190.998355,204.819925 190.792614,205.064174 190.625544,205.342436 L196.500818,205.342436 L196.500818,207.67055 L187.284155,207.67055 C187.308906,206.705908 187.516194,205.824758 187.906025,205.027074 L187.906025,205.027074 Z M200.937439,204.623596 C201.191139,205.442923 201.710905,205.85258 202.496754,205.85258 C203.282603,205.85258 203.797729,205.442923 204.042146,204.623596 C204.286564,203.804269 204.408771,202.621672 204.408771,201.075772 C204.408771,199.455668 204.286564,198.256067 204.042146,197.476934 C203.797729,196.6978 203.282603,196.308239 202.496754,196.308239 C201.710905,196.308239 201.191139,196.6978 200.937439,197.476934 C200.68374,198.256067 200.556892,199.455668 200.556892,201.075772 C200.556892,202.621672 200.68374,203.804269 200.937439,204.623596 L200.937439,204.623596 Z M206.102669,195.937224 C206.792607,197.143027 207.137571,198.855859 207.137571,201.075772 C207.137571,203.295685 206.792607,205.005425 206.102669,206.205044 C205.412731,207.404663 204.210771,208.004463 202.496754,208.004463 C200.782737,208.004463 199.580777,207.404663 198.890839,206.205044 C198.200901,205.005425 197.855937,203.295685 197.855937,201.075772 C197.855937,198.855859 198.200901,197.143027 198.890839,195.937224 C199.580777,194.731422 200.782737,194.12853 202.496754,194.12853 C204.210771,194.12853 205.412731,194.731422 206.102669,195.937224 L206.102669,195.937224 Z M209.151686,198.395194 L209.151686,196.595775 C209.987037,196.558673 210.571774,196.503022 210.905915,196.428818 C211.438064,196.31133 211.871203,196.076357 212.205344,195.723891 C212.434292,195.482731 212.607547,195.161188 212.725115,194.759254 C212.793181,194.518094 212.827213,194.338772 212.827213,194.221284 L215.02696,194.221284 L215.02696,207.67055 L212.316723,207.67055 L212.316723,198.395194 L209.151686,198.395194 Z M222.23879,205.184755 C222.628621,205.642341 223.123636,205.871131 223.723852,205.871131 C224.311692,205.871131 224.774222,205.650071 225.111456,205.207943 C225.448691,204.765816 225.617305,204.192295 225.617305,203.487365 C225.617305,202.702047 225.425487,202.100701 225.041844,201.683308 C224.658201,201.265915 224.187936,201.057221 223.631035,201.057221 C223.179327,201.057221 222.780221,201.193258 222.433705,201.465337 C221.913931,201.867271 221.654047,202.516539 221.654047,203.413162 C221.654047,204.136643 221.84896,204.727168 222.23879,205.184755 L222.23879,205.184755 Z M225.375983,197.606789 C225.375983,197.390363 225.292449,197.152297 225.125379,196.892586 C224.84074,196.472101 224.410696,196.261862 223.835231,196.261862 C222.975129,196.261862 222.362547,196.744176 221.997468,197.708818 C221.799459,198.240607 221.663329,199.025913 221.589076,200.064758 C221.917029,199.675191 222.297572,199.39075 222.730717,199.211425 C223.163862,199.032101 223.658878,198.94244 224.215778,198.94244 C225.410021,198.94244 226.389224,199.34746 227.153416,200.157512 C227.917607,200.967564 228.299698,202.003301 228.299698,203.264756 C228.299698,204.520027 227.925342,205.626875 227.17662,206.585334 C226.427898,207.543792 225.264611,208.023014 223.686725,208.023014 C221.991272,208.023014 220.741357,207.315002 219.936945,205.898957 C219.311979,204.792093 218.9995,203.363702 218.9995,201.613743 C218.9995,200.587265 219.042814,199.752491 219.129443,199.109396 C219.284138,197.96543 219.584241,197.01317 220.029761,196.252587 C220.413404,195.603308 220.916154,195.080802 221.538027,194.685051 C222.1599,194.289301 222.90397,194.091429 223.77026,194.091429 C225.020193,194.091429 226.016412,194.411425 226.758946,195.051428 C227.501481,195.691431 227.91915,196.543209 228.011967,197.606789 L225.375983,197.606789 Z" id="2016-copy-5" fill="#93D1FA"></path>
                <path d="M25.9445451,196.772007 L18.7048703,196.772007 L18.7048703,199.675193 L25.3505205,199.675193 L25.3505205,202.049684 L18.7048703,202.049684 L18.7048703,205.565044 L26.2786839,205.565044 L26.2786839,208.023014 L15.9110983,208.023014 L15.9110983,194.351139 L25.9445451,194.351139 L25.9445451,196.772007 Z M37.5744329,194.351139 L41.686197,194.351139 L41.686197,208.023014 L39.0223679,208.023014 L39.0223679,198.775484 C39.0223679,198.509589 39.0254617,198.137032 39.0316495,197.657803 C39.0378373,197.178574 39.0409312,196.809109 39.0409312,196.549398 L36.4513552,208.023014 L33.6761465,208.023014 L31.1051338,196.549398 C31.1051338,196.809109 31.1082276,197.178574 31.1144154,197.657803 C31.1206032,198.137032 31.123697,198.509589 31.123697,198.775484 L31.123697,208.023014 L28.459868,208.023014 L28.459868,194.351139 L32.6180402,194.351139 L35.1055182,205.101277 L37.5744329,194.351139 Z M45.6680181,195.779543 C46.7818198,194.654128 48.1988018,194.091429 49.9190066,194.091429 C52.2208635,194.091429 53.9039163,194.845817 54.9682157,196.354616 C55.5560555,197.201769 55.8716279,198.052001 55.9149424,198.905339 L53.056199,198.905339 C52.8705654,198.249877 52.6323392,197.755196 52.3415132,197.421282 C51.8217391,196.827656 51.0513711,196.530847 50.0303862,196.530847 C48.990838,196.530847 48.1709685,196.94978 47.5707531,197.787658 C46.9705378,198.625536 46.6704346,199.811224 46.6704346,201.344757 C46.6704346,202.878291 46.9875539,204.026877 47.6218021,204.790552 C48.2560503,205.554227 49.0619975,205.936059 50.0396679,205.936059 C51.0420894,205.936059 51.8062697,205.608333 52.3322316,204.952871 C52.6230576,204.600406 52.8643776,204.071716 53.056199,203.366785 L55.8870975,203.366785 C55.639586,204.857033 55.0068943,206.069001 53.9890033,207.002725 C52.9711123,207.936449 51.6670557,208.403304 50.0767944,208.403304 C48.1090781,208.403304 46.5621545,207.772586 45.4359772,206.511131 C44.3098,205.243492 43.7467198,203.505926 43.7467198,201.29838 C43.7467198,198.91151 44.3871461,197.071916 45.6680181,195.779543 L45.6680181,195.779543 Z" id="EMC-Copy-37" fill="#93D1FA"></path>
                <path d="M62.8800102,208.180695 L62.8800102,194.50882 L65.7109087,194.50882 L65.7109087,199.72157 L71.0571301,199.72157 L71.0571301,194.50882 L73.8973102,194.50882 L73.8973102,208.180695 L71.0571301,208.180695 L71.0571301,202.07751 L65.7109087,202.07751 L65.7109087,208.180695 L62.8800102,208.180695 Z M80.3666094,203.014321 L83.8379406,203.014321 L82.1301199,197.634615 L80.3666094,203.014321 Z M80.5429604,194.50882 L83.7729692,194.50882 L88.6179823,208.180695 L85.5179165,208.180695 L84.6361612,205.370262 L79.5962337,205.370262 L78.649507,208.180695 L75.6608208,208.180695 L80.5429604,194.50882 Z M91.6809217,195.937224 C92.7947234,194.811809 94.2117054,194.24911 95.9319102,194.24911 C98.233767,194.24911 99.9168199,195.003498 100.981119,196.512297 C101.568959,197.35945 101.884532,198.209683 101.927846,199.06302 L99.0691026,199.06302 C98.883469,198.407558 98.6452428,197.912877 98.3544168,197.578963 C97.8346427,196.985337 97.0642747,196.688528 96.0432898,196.688528 C95.0037416,196.688528 94.1838721,197.107461 93.5836567,197.945339 C92.9834414,198.783217 92.6833382,199.968905 92.6833382,201.502438 C92.6833382,203.035972 93.0004575,204.184558 93.6347057,204.948233 C94.2689539,205.711908 95.0749011,206.09374 96.0525715,206.09374 C97.054993,206.09374 97.8191732,205.766014 98.3451351,205.110552 C98.6359611,204.758087 98.8772812,204.229397 99.0691026,203.524466 L101.900001,203.524466 C101.65249,205.014714 101.019798,206.226682 100.001907,207.160406 C98.9840159,208.09413 97.6799593,208.560985 96.089698,208.560985 C94.1219817,208.560985 92.5750581,207.930267 91.4488808,206.668812 C90.3227035,205.401173 89.7596234,203.663607 89.7596234,201.456062 C89.7596234,199.069191 90.4000497,197.229597 91.6809217,195.937224 L91.6809217,195.937224 Z M104.127593,194.50882 L106.939929,194.50882 L106.939929,200.138961 L112.221179,194.50882 L115.915269,194.50882 L110.309162,200.138961 L116.203,208.180695 L112.527472,208.180695 L108.304329,202.207365 L106.939929,203.607944 L106.939929,208.180695 L104.127593,208.180695 L104.127593,194.50882 Z M121.549221,203.014321 L125.020552,203.014321 L123.312732,197.634615 L121.549221,203.014321 Z M121.725572,194.50882 L124.955581,194.50882 L129.800594,208.180695 L126.700528,208.180695 L125.818773,205.370262 L120.778845,205.370262 L119.832119,208.180695 L116.843432,208.180695 L121.725572,194.50882 Z M140.075363,194.50882 L140.075363,196.929688 L135.982162,196.929688 L135.982162,208.180695 L133.104856,208.180695 L133.104856,196.929688 L128.993092,196.929688 L128.993092,194.50882 L140.075363,194.50882 Z M141.727494,208.180695 L141.727494,194.50882 L144.558393,194.50882 L144.558393,199.72157 L149.904614,199.72157 L149.904614,194.50882 L152.744794,194.50882 L152.744794,208.180695 L149.904614,208.180695 L149.904614,202.07751 L144.558393,202.07751 L144.558393,208.180695 L141.727494,208.180695 Z M164.221535,204.887943 C164.886722,204.053157 165.219311,202.865923 165.219311,201.326207 C165.219311,199.792673 164.886722,198.606985 164.221535,197.769107 C163.556348,196.931229 162.657585,196.512297 161.52522,196.512297 C160.392855,196.512297 159.489452,196.929683 158.814983,197.76447 C158.140514,198.599256 157.803285,199.78649 157.803285,201.326207 C157.803285,202.865923 158.140514,204.053157 158.814983,204.887943 C159.489452,205.72273 160.392855,206.140117 161.52522,206.140117 C162.657585,206.140117 163.556348,205.72273 164.221535,204.887943 L164.221535,204.887943 Z M166.00825,206.965623 C164.974889,208.029203 163.480561,208.560985 161.52522,208.560985 C159.56988,208.560985 158.075551,208.029203 157.042191,206.965623 C155.656127,205.660883 154.963105,203.781097 154.963105,201.326207 C154.963105,198.821848 155.656127,196.942061 157.042191,195.68679 C158.075551,194.62321 159.56988,194.091429 161.52522,194.091429 C163.480561,194.091429 164.974889,194.62321 166.00825,195.68679 C167.388126,196.942061 168.078054,198.821848 168.078054,201.326207 C168.078054,203.781097 167.388126,205.660883 166.00825,206.965623 L166.00825,206.965623 Z M170.21283,194.50882 L173.210798,194.50882 L178.659117,204.053161 L178.659117,194.50882 L181.322946,194.50882 L181.322946,208.180695 L178.464203,208.180695 L172.876659,198.469397 L172.876659,208.180695 L170.21283,208.180695 L170.21283,194.50882 Z" id="HACKATHON-Copy-5" fill="#2C95DD"></path>
                <g id="Rectangle-Copy-12">
                    <use fill="#93D1FA" fill-rule="evenodd" xlink:href="#path-1"></use>
                    <use stroke="#FFFFFF" mask="url(#mask-2)" stroke-width="22.4" xlink:href="#path-1"></use>
                </g>
                <g id="Rectangle-Copy-13">
                    <use fill="#93D1FA" fill-rule="evenodd" xlink:href="#path-3"></use>
                    <use stroke="#FFFFFF" mask="url(#mask-4)" stroke-width="22.4" xlink:href="#path-3"></use>
                </g>
                <rect id="Rectangle-1549-Copy-189" fill="#2C95DD" x="217.750477" y="13.9542857" width="12.6837018" height="12.6845481"></rect>
                <g id="Rectangle-1549-Copy-190">
                    <use fill="#2C95DD" fill-rule="evenodd" xlink:href="#path-5"></use>
                    <use stroke="#FFFFFF" mask="url(#mask-6)" stroke-width="22.4" xlink:href="#path-5"></use>
                </g>
                <rect id="Rectangle-1549-Copy-191" fill="#2C95DD" x="206.325606" y="162.377143" width="12.6837018" height="12.6845481"></rect>
                <path d="M197.195345,59.621691 L197.195345,178.853411 L170.770468,178.853411 L170.770468,166.368596 L158.087264,166.368596 L158.087264,26.6388338 L170.770468,26.6388338 L170.770468,13.9542857 L164.428866,13.9542857 L197.195345,13.9542857 L197.195345,22.8342857 L208.853867,22.8342857 L208.853867,35.5188338 L197.195345,35.5188338 L197.195345,46.9371429 L208.853867,46.9371429 L208.853867,59.621691 L197.195345,59.621691 Z M49.6893912,178.853411 L76.5994897,178.853411 L76.5994897,13.9542857 L37.4914092,13.9542857 L37.4914092,166.454634 L49.6893912,166.454634 L49.6893912,178.853411 Z M84.4603211,78.6514286 L149.287423,78.6514286 L149.287423,116.282021 L84.4603211,116.282021 L84.4603211,78.6514286 Z" id="Combined-Shape-Copy-9" fill="#2C95DD"></path>
            </g>
        </g>
    </g>
</svg>