<?xml version="1.0" encoding="UTF-8" standalone="no"?>
<svg width="221px" height="232px" viewBox="0 0 221 232" version="1.1" xmlns="http://www.w3.org/2000/svg" xmlns:xlink="http://www.w3.org/1999/xlink">
    <!-- Generator: Sketch 3.8.3 (29802) - http://www.bohemiancoding.com/sketch -->
    <title>tile-active</title>
    <desc>Created with Sketch.</desc>
    <defs>
        <linearGradient x1="80.6376537%" y1="74.1215657%" x2="41.2782257%" y2="15.457556%" id="linearGradient-1">
            <stop stop-color="#38C4F1" stop-opacity="0" offset="0%"></stop>
            <stop stop-color="#1A91DD" offset="100%"></stop>
        </linearGradient>
    </defs>
    <g id="help-text" stroke="none" stroke-width="1" fill="none" fill-rule="evenodd">
        <g id="tile-active">
            <path d="M143.736662,95.6622164 L171.577148,130.948282 L137.877139,165.233225 L120.9609,168.650658 L82.0178212,126.342596 C82.0178212,126.342596 80.6375717,125.482516 79.0000618,123.064079 C77.3625519,120.645642 75,113.031571 75,113.031571 L102.192247,120.700944 L139.54847,95 L143.736662,95.6622164 Z" id="shadow" fill="url(#linearGradient-1)" opacity="0.5" style="mix-blend-mode: multiply;"></path>
            <g id="rays" transform="translate(3.000000, 4.000000)" stroke="#FFFFFF" stroke-width="5.75999989" stroke-linecap="round" stroke-linejoin="round" stroke-dasharray="17.28000022888182">
                <path d="M107.5,0.36038961 L107.5,221.321542" id="Line-Copy-2"></path>
                <path d="M0,110.5 L214.342871,110.5" id="Line-Copy-12"></path>
                <path d="M191,193 L24,30" id="Line-Copy-15"></path>
                <path d="M61,208 L155,14" id="Line-Copy-16" transform="translate(108.000000, 111.000000) scale(-1, 1) translate(-108.000000, -111.000000) "></path>
                <path d="M61,208 L155,14" id="Line-Copy-17"></path>
                <path d="M61,208 L155,14" id="Line-Copy-18"></path>
                <path d="M209,152 L5,72" id="Line-Copy-19"></path>
                <path d="M209,152 L5,72" id="Line-Copy-20" transform="translate(107.000000, 112.000000) scale(-1, 1) translate(-107.000000, -112.000000) "></path>
                <path d="M61,208 L155,14" id="Line-Copy-21" transform="translate(108.000000, 111.000000) scale(-1, 1) translate(-108.000000, -111.000000) "></path>
                <path d="M191,30 L24,193" id="Line-Copy-22"></path>
            </g>
            <rect id="mask" fill="#339CE2" x="31" y="36" width="158" height="158" rx="14.3999997"></rect>
            <rect id="tile" fill="#EAF4FB" x="35" y="40" width="149" height="149" rx="14.3999997"></rect>
            <g id="check-group" transform="translate(58.000000, 62.000000)">
                <path d="M51.5886076,103.821918 C80.0802088,103.821918 103.177215,80.5805899 103.177215,51.9109589 C103.177215,23.241328 80.0802088,0 51.5886076,0 C23.0970064,0 0,23.241328 0,51.9109589 C0,80.5805899 23.0970064,103.821918 51.5886076,103.821918 Z" id="Oval-1" stroke="#2C95DD" stroke-width="1.43999997" opacity="0.275886194"></path>
                <path d="M86.0214102,32.7166096 L113.861897,68.0026755 L80.1618869,102.287618 L63.2456487,105.705051 L24.3025695,63.3969889 C24.3025695,63.3969889 22.92232,62.5369087 21.2848101,60.1184717 C19.6473002,57.7000348 17.2847483,50.0859643 17.2847483,50.0859643 L44.4769952,57.7553376 L81.833218,32.0543932 L86.0214102,32.7166096 Z" id="Path-14" fill="url(#linearGradient-1)" opacity="0.5" style="mix-blend-mode: multiply;"></path>
                <text id="" font-family="FontAwesome" font-size="79.1999984" font-weight="normal" fill="#2C95DD">
                    <tspan x="11.5443038" y="75.9863014"></tspan>
                </text>
            </g>
        </g>
    </g>
</svg>