<?xml version="1.0" encoding="UTF-8" standalone="no"?>
<svg width="28px" height="26px" viewBox="0 0 28 26" version="1.1" xmlns="http://www.w3.org/2000/svg" xmlns:xlink="http://www.w3.org/1999/xlink">
    <!-- Generator: Sketch 39.1 (31720) - http://www.bohemiancoding.com/sketch -->
    <title>ico-cp</title>
    <desc>Created with Sketch.</desc>
    <defs></defs>
    <g id="Page-1" stroke="none" stroke-width="1" fill="none" fill-rule="evenodd">
        <g id="ico-cp">
            <rect id="cp-sq" fill="#D0D0D0" x="0.896280401" y="0" width="26.2875536" height="26" rx="4.25454534"></rect>
            <path d="M7.98587719,15.9325234 L13.3545104,19.5116122 L13.3545104,16.3153613 L10.3808396,14.3299464 L7.98587719,15.9325234 Z M7.43387842,14.6504618 L9.15219717,13.5019482 L7.43387842,12.3534346 L7.43387842,14.6504618 Z M14.7256041,19.5116122 L20.0942373,15.9325234 L17.6992749,14.3299464 L14.7256041,16.3153613 L14.7256041,19.5116122 Z M14.0400572,15.1223317 L16.4617292,13.5019482 L14.0400572,11.8815647 L11.6183852,13.5019482 L14.0400572,15.1223317 Z M10.3808396,12.6739501 L13.3545104,10.6885351 L13.3545104,7.4922842 L7.98587719,11.071373 L10.3808396,12.6739501 Z M18.9279173,13.5019482 L20.646236,14.6504618 L20.646236,12.3534346 L18.9279173,13.5019482 Z M17.6992749,12.6739501 L20.0942373,11.071373 L14.7256041,7.4922842 L14.7256041,10.6885351 L17.6992749,12.6739501 Z M22.0173297,11.071373 L22.0173297,15.9325234 C22.0173297,16.1758789 21.9164277,16.3658121 21.7146207,16.5023286 L14.4228951,21.363479 C14.2982496,21.4406405 14.1706382,21.4792207 14.0400572,21.4792207 C13.9094762,21.4792207 13.7818649,21.4406405 13.6572194,21.363479 L6.36549371,16.5023286 C6.1636867,16.3658121 6.06278471,16.1758789 6.06278471,15.9325234 L6.06278471,11.071373 C6.06278471,10.8280175 6.1636867,10.6380843 6.36549371,10.5015678 L13.6572194,5.64041736 C13.7818649,5.56325586 13.9094762,5.52467569 14.0400572,5.52467569 C14.1706382,5.52467569 14.2982496,5.56325586 14.4228951,5.64041736 L21.7146207,10.5015678 C21.9164277,10.6380843 22.0173297,10.8280175 22.0173297,11.071373 L22.0173297,11.071373 Z" id="cp-ico" fill="#FFFFFF"></path>
        </g>
    </g>
</svg>