<?xml version="1.0" encoding="UTF-8" standalone="no"?>
<svg width="27px" height="26px" viewBox="0 0 27 26" version="1.1" xmlns="http://www.w3.org/2000/svg" xmlns:xlink="http://www.w3.org/1999/xlink">
    <!-- Generator: Sketch 39.1 (31720) - http://www.bohemiancoding.com/sketch -->
    <title>ico-drb</title>
    <desc>Created with Sketch.</desc>
    <defs></defs>
    <g id="Page-1" stroke="none" stroke-width="1" fill="none" fill-rule="evenodd">
        <g id="ico-drb">
            <rect id="drb-sq" fill="#D0D0D0" x="0" y="0" width="26.4508304" height="26" rx="4.25454534"></rect>
            <path d="M16.0993786,18.1242894 C15.8517551,16.6938339 15.4390555,15.2159165 14.8612673,13.6904929 L14.84358,13.6904929 L14.8258927,13.6993961 C14.7315599,13.7350091 14.6048021,13.7839762 14.4456156,13.846299 C14.286429,13.9086218 13.9886957,14.0540393 13.5524067,14.2825561 C13.1161176,14.5110729 12.7122615,14.7544247 12.3408262,15.012619 C11.969391,15.2708132 11.583222,15.6106155 11.1823077,16.0320361 C10.7813935,16.4534566 10.4777644,16.892677 10.2714115,17.3497105 L10.1387567,17.2517753 C11.2235835,18.1421003 12.4557868,18.5872562 13.8354035,18.5872562 C14.6136489,18.5872562 15.3682997,18.4329355 16.0993786,18.1242894 L16.0993786,18.1242894 Z M14.4633029,12.7200434 C14.3394911,12.4292039 14.1832548,12.0997886 13.9945893,11.7317876 C12.1609961,12.2837891 10.1770899,12.5597857 8.04281102,12.5597857 C8.03691522,12.6013342 8.03396737,12.6636561 8.03396737,12.7467531 C8.03396737,13.4827551 8.16367297,14.1846175 8.42308808,14.8523613 C8.68250319,15.5201051 9.04803718,16.1180977 9.51970102,16.6463573 C9.81449092,16.1180977 10.178551,15.6239747 10.6118921,15.1639735 C11.0452333,14.7039722 11.4653026,14.3344929 11.8721126,14.0555243 C12.2789227,13.7765558 12.6636177,13.5361717 13.0262093,13.3343647 C13.3888009,13.1325576 13.6821124,12.9901078 13.9061528,12.9070108 L14.2333679,12.7912691 C14.2569511,12.7853336 14.2952732,12.7749466 14.3483354,12.7601079 C14.4013976,12.7452691 14.4397197,12.7319144 14.4633029,12.7200434 L14.4633029,12.7200434 Z M13.517032,10.8325638 C12.8095363,9.56830223 12.0902597,8.4465095 11.3591808,7.46715195 C10.5455607,7.85295947 9.85576265,8.40495271 9.28976605,9.12314825 C8.72376945,9.84134379 8.34644404,10.6485597 8.1577785,11.5448203 C9.93830949,11.5448203 11.7247095,11.3074038 13.517032,10.8325638 L13.517032,10.8325638 Z M19.5660905,13.6726865 C18.3279729,13.3165565 17.1223003,13.230493 15.9490365,13.4144935 C16.461971,14.8330781 16.8392964,16.224932 17.0810241,17.5900971 C17.7354577,17.1449346 18.2808108,16.5825544 18.7170998,15.9029396 C19.1533889,15.2233248 19.436383,14.4799145 19.5660905,13.6726865 L19.5660905,13.6726865 Z M12.4469501,7.07541089 C12.4410543,7.07541089 12.4351586,7.07837859 12.4292628,7.08431409 C12.4351586,7.07837859 12.4410543,7.07541089 12.4469501,7.07541089 L12.4469501,7.07541089 Z M17.6647052,8.36637575 C16.5739826,7.3929537 15.2975614,6.90624997 13.8354035,6.90624997 C13.3873229,6.90624997 12.9304054,6.96263638 12.4646374,7.07541089 C13.2369869,8.08444594 13.9621592,9.21810949 14.6401759,10.4764356 C15.046986,10.3221125 15.4302071,10.1425664 15.7898508,9.93779159 C16.1494945,9.73301683 16.4339625,9.55050294 16.6432633,9.39024443 C16.8525641,9.22998592 17.0456486,9.0608267 17.2225225,8.88276169 C17.3993965,8.70469668 17.509941,8.5845046 17.5541595,8.52218185 C17.598378,8.4598591 17.6352262,8.40792425 17.6647052,8.36637575 L17.6647052,8.36637575 Z M19.6368397,12.6844306 C19.6191523,11.3073946 19.179922,10.0906352 18.3191355,9.03411619 L18.3102918,9.0430194 C18.2572296,9.1142454 18.2012204,9.18695419 18.1422624,9.26114794 C18.0833044,9.3353417 17.9550728,9.4674046 17.7575635,9.65734061 C17.5600543,9.84727662 17.3507566,10.0268228 17.1296642,10.1959846 C16.9085718,10.3651463 16.6137863,10.5580472 16.2452989,10.774693 C15.8768115,10.9913387 15.4891686,11.1827557 15.0823586,11.3489497 C15.2297535,11.6635313 15.3594591,11.9454633 15.4714793,12.1947543 C15.4832709,12.2303673 15.502432,12.2823021 15.528963,12.3505604 C15.5554941,12.4188187 15.577603,12.4677858 15.5952904,12.4974633 C15.8075392,12.4677858 16.0271543,12.4470119 16.2541426,12.4351409 C16.4811308,12.4232699 16.6977981,12.4173344 16.904151,12.4173344 C17.110504,12.4173344 17.3139059,12.421786 17.5143631,12.4306893 C17.7148202,12.4395925 17.9034829,12.4514633 18.0803569,12.4663021 C18.2572308,12.4811408 18.4237846,12.4974632 18.5800232,12.5152697 C18.7362619,12.5330762 18.8777589,12.5523663 19.0045186,12.5731405 C19.1312782,12.5939148 19.2388749,12.611721 19.3273119,12.6265598 C19.4157489,12.6413985 19.4894452,12.6547532 19.5484032,12.6666242 L19.6368397,12.6844306 Z M20.6273288,12.7467531 C20.6273288,13.9872726 20.3236998,15.1313231 19.7164326,16.178939 C19.1091654,17.2265548 18.28524,18.0560285 17.2446317,18.667385 C16.2040233,19.2787415 15.0676253,19.5844152 13.8354035,19.5844152 C12.6031818,19.5844152 11.4667838,19.2787415 10.4261754,18.667385 C9.38556709,18.0560285 8.56164168,17.2265548 7.95437449,16.178939 C7.3471073,15.1313231 7.04347826,13.9872726 7.04347826,12.7467531 C7.04347826,11.5062335 7.3471073,10.362183 7.95437449,9.31456718 C8.56164168,8.26695138 9.38556709,7.43747765 10.4261754,6.82612112 C11.4667838,6.21476459 12.6031818,5.90909091 13.8354035,5.90909091 C15.0676253,5.90909091 16.2040233,6.21476459 17.2446317,6.82612112 C18.28524,7.43747765 19.1091654,8.26695138 19.7164326,9.31456718 C20.3236998,10.362183 20.6273288,11.5062335 20.6273288,12.7467531 L20.6273288,12.7467531 Z" id="drb-ico" fill="#FFFFFF"></path>
        </g>
    </g>
</svg>