<?xml version="1.0" encoding="UTF-8" standalone="no"?>
<svg width="27px" height="26px" viewBox="0 0 27 26" version="1.1" xmlns="http://www.w3.org/2000/svg" xmlns:xlink="http://www.w3.org/1999/xlink">
    <!-- Generator: Sketch 39.1 (31720) - http://www.bohemiancoding.com/sketch -->
    <title>ico-twi</title>
    <desc>Created with Sketch.</desc>
    <defs></defs>
    <g id="Page-1" stroke="none" stroke-width="1" fill="none" fill-rule="evenodd">
        <g id="ico-twi">
            <rect id="twi-sq" fill="#D0D0D0" x="0" y="0" width="26.4508304" height="26" rx="4.25454534"></rect>
            <path d="M20.4797148,8.86627462 C20.0846963,9.44795365 19.6071438,9.94356049 19.047043,10.35311 C19.0529388,10.436207 19.0558867,10.5608506 19.0558867,10.7270447 C19.0558867,11.4986597 18.9438682,12.2687793 18.7198279,13.0374266 C18.4957875,13.8060739 18.1553103,14.5435487 17.698386,15.2498733 C17.2414616,15.9561978 16.6975824,16.5808998 16.0667321,17.1239981 C15.4358817,17.6670964 14.6753351,18.1003814 13.7850697,18.4238662 C12.8948042,18.747351 11.9426471,18.9090909 10.9285698,18.9090909 C9.33080858,18.9090909 7.86867262,18.4787736 6.54211808,17.618126 C6.74847101,17.6418681 6.97840368,17.6537389 7.23192299,17.6537389 C8.55847753,17.6537389 9.74056729,17.2441955 10.7782277,16.4250965 C10.1591689,16.4132255 9.60497225,16.2218084 9.11562102,15.8508397 C8.62626979,15.4798709 8.29021435,15.0065219 8.10744461,14.4307783 C8.30200594,14.4604558 8.48182508,14.4752944 8.64690742,14.4752944 C8.90042674,14.4752944 9.15099439,14.4426496 9.39861791,14.3773591 C8.73828853,14.2408426 8.19146148,13.9099434 7.75812033,13.3846516 C7.32477918,12.8593599 7.10811185,12.2494963 7.10811185,11.5550428 L7.10811185,11.51943 C7.50902611,11.744979 7.93941291,11.8666549 8.39928515,11.8844614 C8.01016248,11.6232994 7.70063773,11.2820133 7.47070161,10.8605927 C7.24076549,10.4391722 7.12579916,9.98214556 7.12579916,9.48949903 C7.12579916,8.96717501 7.25550477,8.48343899 7.51491988,8.03827646 C8.22831143,8.92266601 9.09645466,9.6304638 10.1193756,10.1616911 C11.1422965,10.6929184 12.2374246,10.9882051 13.4047926,11.0475601 C13.3576262,10.8220111 13.3340434,10.6024008 13.3340434,10.3887228 C13.3340434,9.59336579 13.6126156,8.91524505 14.1697685,8.35434028 C14.7269215,7.7934355 15.4005063,7.51298731 16.1905432,7.51298731 C17.0159549,7.51298731 17.7116486,7.81569329 18.2776452,8.42111432 C18.9202872,8.29646881 19.5245974,8.06498777 20.090594,7.72666426 C19.8724495,8.40924679 19.4538541,8.93749839 18.8347954,9.31143491 C19.3831046,9.25207991 19.9314055,9.10369463 20.4797148,8.86627462 L20.4797148,8.86627462 Z" id="twi-ico" fill="#FFFFFF"></path>
        </g>
    </g>
</svg>