<?xml version="1.0" encoding="UTF-8" standalone="no"?>
<svg width="27px" height="26px" viewBox="0 0 27 26" version="1.1" xmlns="http://www.w3.org/2000/svg" xmlns:xlink="http://www.w3.org/1999/xlink">
    <!-- Generator: Sketch 39.1 (31720) - http://www.bohemiancoding.com/sketch -->
    <title>ico-mail</title>
    <desc>Created with Sketch.</desc>
    <defs></defs>
    <g id="Page-1" stroke="none" stroke-width="1" fill="none" fill-rule="evenodd">
        <g id="ico-mail">
            <rect id="mail-sq" fill="#D0D0D0" x="0" y="0" width="26.4508304" height="26" rx="4.25454534"></rect>
            <path d="M20.5669571,10.6645644 L20.5669571,16.9145254 C20.5669571,17.2608726 20.4384655,17.5573623 20.1814786,17.8040035 C19.9244917,18.0506447 19.6155652,18.1739634 19.2546899,18.1739634 L7.18183235,18.1739634 C6.82095708,18.1739634 6.51203062,18.0506447 6.25504369,17.8040035 C5.99805676,17.5573623 5.86956522,17.2608726 5.86956522,16.9145254 L5.86956522,10.6645644 C6.11014873,10.9217009 6.38626884,11.1499718 6.69793384,11.3493838 C8.67727999,12.6403142 10.0360097,13.5455262 10.7741636,14.065047 C11.0858286,14.2854497 11.3387109,14.4573088 11.532818,14.5806294 C11.7269252,14.70395 11.9852752,14.8298925 12.3078758,14.9584608 C12.6304764,15.0870291 12.9312013,15.1513122 13.2100595,15.1513122 L13.2182611,15.1513122 L13.2264628,15.1513122 C13.505321,15.1513122 13.8060458,15.0870291 14.1286465,14.9584608 C14.4512471,14.8298925 14.7095971,14.70395 14.9037042,14.5806294 C15.0978114,14.4573088 15.3506937,14.2854497 15.6623587,14.065047 C16.5918859,13.4195818 17.9533494,12.5143698 19.7467901,11.3493838 C20.0584551,11.1447241 20.3318414,10.9164532 20.5669571,10.6645644 L20.5669571,10.6645644 Z M20.5669571,8.35034708 C20.5669571,8.76491416 20.4329978,9.1611084 20.1650753,9.53894168 C19.8971527,9.91677497 19.5636215,10.2395027 19.1644716,10.5071346 C17.1085761,11.8767803 15.8291285,12.7295162 15.3260902,13.0653681 C15.2714121,13.1021018 15.155223,13.1821278 14.9775193,13.3054484 C14.7998155,13.428769 14.652187,13.5284735 14.5346291,13.6045649 C14.4170713,13.6806564 14.2749104,13.76593 14.1081423,13.8603883 C13.9413742,13.9548466 13.7841771,14.0256893 13.6365463,14.0729184 C13.4889155,14.1201476 13.3522224,14.1437618 13.2264628,14.1437618 L13.2182611,14.1437618 L13.2100595,14.1437618 C13.0842999,14.1437618 12.9476068,14.1201476 12.799976,14.0729184 C12.6523452,14.0256893 12.4951481,13.9548466 12.32838,13.8603883 C12.1616119,13.76593 12.019451,13.6806564 11.9018932,13.6045649 C11.7843353,13.5284735 11.6367067,13.428769 11.459003,13.3054484 C11.2812993,13.1821278 11.1651101,13.1021018 11.1104321,13.0653681 C10.6128616,12.7295162 9.89658964,12.2506722 8.96159464,11.6288216 C8.02659964,11.006971 7.46615782,10.6330791 7.28025238,10.5071346 C6.94124834,10.2867319 6.62138643,9.98368265 6.32065704,9.59797784 C6.01992766,9.21227303 5.86956522,8.85412393 5.86956522,8.5235198 C5.86956522,8.11420041 5.98302051,7.77310603 6.2099345,7.50022644 C6.4368485,7.22734684 6.7608112,7.09090909 7.18183235,7.09090909 L19.2546899,7.09090909 C19.6100974,7.09090909 19.9176569,7.21422783 20.1773778,7.460869 C20.4370986,7.70751017 20.5669571,8.0039999 20.5669571,8.35034708 L20.5669571,8.35034708 Z" id="mail-ico" fill="#FDFDFD" opacity="0.9"></path>
        </g>
    </g>
</svg>