<?xml version="1.0" encoding="UTF-8" standalone="no"?>
<svg width="27px" height="26px" viewBox="0 0 27 26" version="1.1" xmlns="http://www.w3.org/2000/svg" xmlns:xlink="http://www.w3.org/1999/xlink">
    <!-- Generator: Sketch 39.1 (31720) - http://www.bohemiancoding.com/sketch -->
    <title>ico-ig</title>
    <desc>Created with Sketch.</desc>
    <defs></defs>
    <g id="Page-1" stroke="none" stroke-width="1" fill="none" fill-rule="evenodd">
        <g id="ico-ig">
            <rect id="ig-sq" fill="#D0D0D0" x="0" y="0" width="26.4508304" height="26" rx="4.25454534"></rect>
            <path d="M18.1762499,17.9297383 L18.1762499,12.1604608 L16.9823568,12.1604608 C17.1002727,12.5343973 17.1592298,12.9231668 17.1592298,13.3267808 C17.1592298,14.0746538 16.9705671,14.7646454 16.593236,15.3967762 C16.215905,16.028907 15.7029783,16.5289653 15.0544405,16.8969664 C14.4059027,17.2649674 13.6984176,17.4489651 12.9319638,17.4489651 C11.7704916,17.4489651 10.7770646,17.046841 9.95165286,16.2425807 C9.12624115,15.4383204 8.71354148,14.4663968 8.71354148,13.3267808 C8.71354148,12.9231668 8.77249857,12.5343973 8.89041453,12.1604608 L7.6434595,12.1604608 L7.6434595,17.9297383 C7.6434595,18.0840613 7.69504696,18.2131565 7.79822342,18.3170277 C7.90139989,18.420899 8.02963157,18.4728338 8.18292232,18.4728338 L17.6367871,18.4728338 C17.784182,18.4728338 17.9109398,18.420899 18.0170641,18.3170277 C18.1231885,18.2131565 18.1762499,18.0840613 18.1762499,17.9297383 L18.1762499,17.9297383 Z M15.6646525,13.1843295 C15.6646525,12.4483275 15.3978717,11.8206577 14.8643019,11.3013014 C14.3307322,10.7819452 13.686626,10.5222709 12.9319638,10.5222709 C12.1831975,10.5222709 11.5420391,10.7819452 11.0084694,11.3013014 C10.4748996,11.8206577 10.2081188,12.4483275 10.2081188,13.1843295 C10.2081188,13.9203315 10.4748996,14.5480013 11.0084694,15.0673575 C11.5420391,15.5867138 12.1831975,15.8463881 12.9319638,15.8463881 C13.686626,15.8463881 14.3307322,15.5867138 14.8643019,15.0673575 C15.3978717,14.5480013 15.6646525,13.9203315 15.6646525,13.1843295 L15.6646525,13.1843295 Z M18.1762499,9.97917536 L18.1762499,8.51014638 C18.1762499,8.34395237 18.1172928,8.20001865 17.9993768,8.07834089 C17.8814609,7.95666314 17.737016,7.89582517 17.5660378,7.89582517 L16.0272423,7.89582517 C15.8562641,7.89582517 15.7118193,7.95666314 15.5939033,8.07834089 C15.4759873,8.20001865 15.4170302,8.34395237 15.4170302,8.51014638 L15.4170302,9.97917536 C15.4170302,10.1513049 15.4759873,10.2967224 15.5939033,10.4154324 C15.7118193,10.5341425 15.8562641,10.5934966 16.0272423,10.5934966 L17.5660378,10.5934966 C17.737016,10.5934966 17.8814609,10.5341425 17.9993768,10.4154324 C18.1172928,10.2967224 18.1762499,10.1513049 18.1762499,9.97917536 L18.1762499,9.97917536 Z M19.7150455,8.12730852 L19.7150455,18.2947697 C19.7150455,18.7755452 19.5440699,19.1880563 19.2021136,19.5323153 C18.8601573,19.8765743 18.4504055,20.0487013 17.9728459,20.0487013 L7.87339447,20.0487013 C7.39583484,20.0487013 6.98608303,19.8765743 6.64412674,19.5323153 C6.30217046,19.1880563 6.13119489,18.7755452 6.13119489,18.2947697 L6.13119489,8.12730852 C6.13119489,7.646533 6.30217046,7.23402192 6.64412674,6.8897629 C6.98608303,6.54550388 7.39583484,6.37337696 7.87339447,6.37337696 L17.9728459,6.37337696 C18.4504055,6.37337696 18.8601573,6.54550388 19.2021136,6.8897629 C19.5440699,7.23402192 19.7150455,7.646533 19.7150455,8.12730852 L19.7150455,8.12730852 Z" id="ig-ico" fill="#FFFFFF"></path>
        </g>
    </g>
</svg>