<?xml version="1.0" encoding="UTF-8" standalone="no"?>
<svg width="28px" height="28px" viewBox="0 0 28 28" version="1.1" xmlns="http://www.w3.org/2000/svg" xmlns:xlink="http://www.w3.org/1999/xlink">
    <!-- Generator: Sketch 3.8.3 (29802) - http://www.bohemiancoding.com/sketch -->
    <title>Group 3</title>
    <desc>Created with Sketch.</desc>
    <defs>
        <linearGradient x1="50%" y1="0%" x2="50%" y2="100%" id="linearGradient-1">
            <stop stop-color="#FFFFFF" offset="0%"></stop>
            <stop stop-color="#000000" stop-opacity="0.5" offset="100%"></stop>
        </linearGradient>
        <circle id="path-2" cx="14" cy="14" r="14"></circle>
    </defs>
    <g id="Tile-View" stroke="none" stroke-width="1" fill="none" fill-rule="evenodd">
        <g id="Desktop-Copy-2" transform="translate(-812.000000, -1296.000000)">
            <g id="Group-3" transform="translate(812.000000, 1296.000000)">
                <g id="container">
                    <use fill="#EA0F18" xlink:href="#path-2"></use>
                    <use fill="url(#linearGradient-1)" style="mix-blend-mode: soft-light;" xlink:href="#path-2"></use>
                </g>
                <path d="M21,12.0078125 L21,17.7678571 C21,18.0870552 20.8863479,18.3603039 20.6590402,18.5876116 C20.4317325,18.8149193 20.1584837,18.9285714 19.8392857,18.9285714 L9.16071429,18.9285714 C8.84151626,18.9285714 8.56826751,18.8149193 8.34095982,18.5876116 C8.11365214,18.3603039 8,18.0870552 8,17.7678571 L8,12.0078125 C8.21279868,12.2447929 8.45702987,12.4551702 8.73270089,12.6389509 C10.4834537,13.828689 11.6852646,14.662944 12.3381696,15.1417411 C12.6138407,15.3448671 12.8375177,15.5032546 13.0092076,15.6169085 C13.1808974,15.7305623 13.4094108,15.8466326 13.6947545,15.9651228 C13.9800982,16.0836129 14.2460925,16.1428571 14.4927455,16.1428571 L14.5,16.1428571 L14.5072545,16.1428571 C14.7539075,16.1428571 15.0199018,16.0836129 15.3052455,15.9651228 C15.5905892,15.8466326 15.8191026,15.7305623 15.9907924,15.6169085 C16.1624823,15.5032546 16.3861593,15.3448671 16.6618304,15.1417411 C17.4840071,14.546872 18.6882361,13.712617 20.2745536,12.6389509 C20.5502246,12.4503339 20.7920377,12.2399565 21,12.0078125 L21,12.0078125 Z M21,9.875 C21,10.2570704 20.8815116,10.6222081 20.6445312,10.9704241 C20.4075509,11.3186401 20.112539,11.6160702 19.7594866,11.8627232 C17.9410251,13.1250063 16.80934,13.9108988 16.3643973,14.2204241 C16.316034,14.2542784 16.2132634,14.3280314 16.0560826,14.4416853 C15.8989017,14.5553391 15.7683227,14.6472281 15.6643415,14.7173549 C15.5603603,14.7874817 15.4346176,14.866071 15.2871094,14.953125 C15.1396012,15.040179 15.0005587,15.1054685 14.8699777,15.1489955 C14.7393967,15.1925225 14.6184901,15.2142857 14.5072545,15.2142857 L14.5,15.2142857 L14.4927455,15.2142857 C14.3815099,15.2142857 14.2606033,15.1925225 14.1300223,15.1489955 C13.9994413,15.1054685 13.8603988,15.040179 13.7128906,14.953125 C13.5653824,14.866071 13.4396397,14.7874817 13.3356585,14.7173549 C13.2316773,14.6472281 13.1010983,14.5553391 12.9439174,14.4416853 C12.7867366,14.3280314 12.683966,14.2542784 12.6356027,14.2204241 C12.1954963,13.9108988 11.5619461,13.4695899 10.734933,12.8964844 C9.90791997,12.3233788 9.4122032,11.9787952 9.24776786,11.8627232 C8.94791517,11.6595972 8.66499389,11.3803031 8.39899554,11.0248326 C8.13299718,10.6693621 8,10.3392872 8,10.0345982 C8,9.65736419 8.10035242,9.34300721 8.30106027,9.09151786 C8.50176812,8.8400285 8.78831659,8.71428571 9.16071429,8.71428571 L19.8392857,8.71428571 C20.1536474,8.71428571 20.4256871,8.82793785 20.6554129,9.05524554 C20.8851388,9.28255322 21,9.55580198 21,9.875 L21,9.875 Z" id="mail" fill="#FDFDFD" opacity="0.9"></path>
            </g>
        </g>
    </g>
</svg>