<?xml version="1.0" encoding="UTF-8" standalone="no"?>
<svg width="459px" height="492px" viewBox="0 0 459 492" version="1.1" xmlns="http://www.w3.org/2000/svg" xmlns:xlink="http://www.w3.org/1999/xlink">
    <!-- Generator: Sketch 3.8.3 (29802) - http://www.bohemiancoding.com/sketch -->
    <title>Group 9</title>
    <desc>Created with Sketch.</desc>
    <defs>
        <rect id="path-1" x="0" y="0" width="508" height="508"></rect>
        <linearGradient x1="12.244898%" y1="35.8022476%" x2="100%" y2="80.2914698%" id="linearGradient-3">
            <stop stop-color="#2F2F2F" offset="0%"></stop>
            <stop stop-color="#1D1D1D" offset="12.244898%"></stop>
            <stop stop-color="#2B2B2B" offset="22.9591837%"></stop>
            <stop stop-color="#171717" offset="100%"></stop>
        </linearGradient>
        <rect id="path-4" x="0" y="0" width="353" height="391"></rect>
        <rect id="path-6" x="13.4002034" y="204.707741" width="150.927681" height="305.592417"></rect>
        <mask id="mask-7" maskContentUnits="userSpaceOnUse" maskUnits="objectBoundingBox" x="0" y="0" width="150.927681" height="305.592417" fill="white">
            <use xlink:href="#path-6"></use>
        </mask>
        <linearGradient x1="50%" y1="100%" x2="50%" y2="0%" id="linearGradient-8">
            <stop stop-color="#00C578" offset="0%"></stop>
            <stop stop-color="#0A978E" offset="100%"></stop>
        </linearGradient>
        <rect id="path-9" x="13.7206983" y="204.707741" width="149.741814" height="160.14218"></rect>
        <rect id="path-10" x="169.667051" y="204.707741" width="150.927681" height="306.57188"></rect>
        <mask id="mask-11" maskContentUnits="userSpaceOnUse" maskUnits="objectBoundingBox" x="0" y="0" width="150.927681" height="306.57188" fill="white">
            <use xlink:href="#path-10"></use>
        </mask>
        <polygon id="path-12" points="1.70530257e-13 0 8 12 16 0"></polygon>
        <polygon id="path-14" points="12 12 12 0 -1.13686838e-13 12"></polygon>
        <path d="M7,1 L6,1 L6,0 L2,0 L2,1 L1,1 C0.4,1 -1.13686838e-13,1.4 -1.13686838e-13,2 L-1.13686838e-13,12 C-1.13686838e-13,12.6 0.4,13 1,13 L7,13 C7.6,13 8,12.6 8,12 L8,2 C8,1.4 7.6,1 7,1 L7,1 Z" id="path-16"></path>
        <text id="text-18" font-family="Helvetica-Bold, Helvetica" font-size="18.6097946" font-weight="bold" fill="#FFFFFF">
            <tspan x="51.9426434" y="167.85782">WARM UP</tspan>
        </text>
        <filter x="-50%" y="-50%" width="200%" height="200%" filterUnits="objectBoundingBox" id="filter-19">
            <feOffset dx="0" dy="2" in="SourceAlpha" result="shadowOffsetOuter1"></feOffset>
            <feGaussianBlur stdDeviation="2" in="shadowOffsetOuter1" result="shadowBlurOuter1"></feGaussianBlur>
            <feColorMatrix values="0 0 0 0 0.0327164878   0 0 0 0 0.518229167   0 0 0 0 0.468003717  0 0 0 1 0" type="matrix" in="shadowBlurOuter1"></feColorMatrix>
        </filter>
        <text id="text-20" font-family="Helvetica-Bold, Helvetica" font-size="18.6097946" font-weight="bold" fill="#FEFAED">
            <tspan x="205.810474" y="167.85782">GO FAST</tspan>
        </text>
        <filter x="-50%" y="-50%" width="200%" height="200%" filterUnits="objectBoundingBox" id="filter-21">
            <feOffset dx="0" dy="2" in="SourceAlpha" result="shadowOffsetOuter1"></feOffset>
            <feGaussianBlur stdDeviation="2" in="shadowOffsetOuter1" result="shadowBlurOuter1"></feGaussianBlur>
            <feColorMatrix values="0 0 0 0 0.748193027   0 0 0 0 0.598609458   0 0 0 0 0.0933617601  0 0 0 1 0" type="matrix" in="shadowBlurOuter1"></feColorMatrix>
        </filter>
        <linearGradient x1="50%" y1="0%" x2="50%" y2="100%" id="linearGradient-22">
            <stop stop-color="#EC5900" offset="0%"></stop>
            <stop stop-color="#F6D922" offset="100%"></stop>
        </linearGradient>
        <rect id="path-23" x="169.548628" y="204.707741" width="150.927681" height="292.8594"></rect>
        <rect id="path-24" x="326.475031" y="204.707741" width="49.4925187" height="306.57188"></rect>
        <mask id="mask-25" maskContentUnits="userSpaceOnUse" maskUnits="objectBoundingBox" x="0" y="0" width="49.4925187" height="306.57188" fill="white">
            <use xlink:href="#path-24"></use>
        </mask>
        <linearGradient x1="0%" y1="0%" x2="0%" y2="100%" id="linearGradient-26">
            <stop stop-color="#108ED2" offset="0%"></stop>
            <stop stop-color="#00C3EC" offset="100%"></stop>
        </linearGradient>
        <rect id="path-27" x="326.356608" y="204.707741" width="49.4925187" height="294.818325"></rect>
        <text id="text-28" font-family="Roboto-Light, Roboto" font-size="34.2812006" font-weight="300" fill="#FFFFFF">
            <tspan x="202.870324" y="254.338073">3m0s</tspan>
        </text>
        <filter x="-50%" y="-50%" width="200%" height="200%" filterUnits="objectBoundingBox" id="filter-29">
            <feOffset dx="0" dy="2" in="SourceAlpha" result="shadowOffsetOuter1"></feOffset>
            <feGaussianBlur stdDeviation="2" in="shadowOffsetOuter1" result="shadowBlurOuter1"></feGaussianBlur>
            <feColorMatrix values="0 0 0 0 0.766634779   0 0 0 0 0.566689747   0 0 0 0 0.0603773287  0 0 0 1 0" type="matrix" in="shadowBlurOuter1"></feColorMatrix>
        </filter>
        <path d="M36.3750227,155.423 C37.0186116,154.136593 38.060846,154.134135 38.7056644,155.423 L44.2154217,166.435914 C44.8590106,167.722321 44.2149449,168.76516 42.7737752,168.76516 L32.3069119,168.76516 C30.8671236,168.76516 30.220447,167.724779 30.8652654,166.435914 L36.3750227,155.423 Z" id="path-30"></path>
        <filter x="-50%" y="-50%" width="200%" height="200%" filterUnits="objectBoundingBox" id="filter-31">
            <feOffset dx="2" dy="0" in="SourceAlpha" result="shadowOffsetOuter1"></feOffset>
            <feGaussianBlur stdDeviation="1.5" in="shadowOffsetOuter1" result="shadowBlurOuter1"></feGaussianBlur>
            <feColorMatrix values="0 0 0 0 0.028550743   0 0 0 0 0.498511905   0 0 0 0 0.449895233  0 0 0 0.723816803 0" type="matrix" in="shadowBlurOuter1"></feColorMatrix>
        </filter>
    </defs>
    <g id="Tile-View" stroke="none" stroke-width="1" fill="none" fill-rule="evenodd">
        <g id="Desktop-Copy-2" transform="translate(-543.000000, -534.000000)">
            <g id="Group-9" transform="translate(518.000000, 518.000000)">
                <g id="PHONE-360">
                    <mask id="mask-2" fill="white">
                        <use xlink:href="#path-1"></use>
                    </mask>
                    <g id="Mask"></g>
                    <g mask="url(#mask-2)">
                        <g transform="translate(53.000000, 44.000000)">
                            <g id="phone-3" stroke-width="1" fill="none">
                                <polygon id="Fill-2" fill="#1E1E1E" points="395.509294 152.5005 402.501119 152.5005 402.501119 101.8335 395.509294 101.8335"></polygon>
                                <polygon id="Fill-3" fill="#1E1E1E" points="0.000499380421 277.5 6.9913259 277.5 6.9913259 152.5 0.000499380421 152.5"></polygon>
                                <path d="M35.0035713,11.5 C33.8809641,11.713 32.9091698,11.9295 32.066715,12.1465 C16.819632,15.193 5.32639157,28.67 5.32639157,44.833 L5.32639157,745.167 C5.32639157,761.334 16.8216295,774.81 32.0747051,777.8545 C32.9151623,778.0725 33.8839603,778.287 35.0025725,778.4995 C69.7204981,785.1045 131.494356,789.5005 201.915984,789.5005 C272.338112,789.5005 334.111969,785.1045 368.830394,778.4995 C369.948507,778.287 370.917305,778.0725 371.757762,777.8545 C387.010838,774.81 398.506076,761.334 398.506076,745.167 L398.506076,44.833 C398.506076,28.67 387.012835,15.193 371.765253,12.1465 C370.923297,11.9295 369.950504,11.713 368.828896,11.5 C334.111969,4.893 272.33911,0.4995 201.915984,0.4995 C131.492857,0.4995 69.7204981,4.893 35.0035713,11.5 Z" id="Fill-1" stroke="" stroke-width="2" fill="url(#linearGradient-3)"></path>
                                <g id="holes" transform="translate(62.921933, 27.500000)">
                                    <path d="M138.17257,18.337 C137.712641,18.337 137.343099,17.967 137.340103,17.5095 C137.332612,17.0505 137.702154,16.673 138.165079,16.67 L138.170572,16.67 C138.628005,16.67 138.997546,17.039 139.000543,17.4965 C139.007534,17.9565 138.634996,18.3335 138.178563,18.337 L138.17257,18.337 M135.421983,17.814 C135.315115,17.814 135.212742,17.793 135.108871,17.75 C134.6829,17.5795 134.476656,17.0935 134.649441,16.667 C134.780778,16.3425 135.09339,16.1455 135.422482,16.145 C135.526853,16.145 135.632721,16.165 135.735094,16.2065 C136.161066,16.3795 136.364314,16.8665 136.190529,17.293 C136.06119,17.6165 135.748078,17.814 135.421983,17.814 M140.912171,17.7695 C140.589072,17.7695 140.278957,17.5795 140.145622,17.26 C139.966344,16.8365 140.1631,16.3495 140.586076,16.1695 C140.692943,16.1245 140.803805,16.103 140.91267,16.103 C141.236768,16.103 141.542888,16.2935 141.678221,16.6135 C141.857498,17.037 141.657247,17.523 141.234771,17.703 C141.127903,17.75 141.01804,17.7695 140.912171,17.7695 M133.080887,16.2735 C132.871647,16.2735 132.657912,16.1935 132.499109,16.033 C132.170017,15.7105 132.165523,15.1835 132.489121,14.8535 C132.651919,14.689 132.866154,14.6065 133.080388,14.6065 C133.291126,14.6065 133.502364,14.6865 133.664164,14.8465 C133.993755,15.167 133.99775,15.697 133.674151,16.023 C133.510854,16.1905 133.297618,16.2735 133.080887,16.2735 M143.2258,16.1935 C143.016061,16.1935 142.802825,16.113 142.639528,15.953 C142.312933,15.63 142.309937,15.103 142.633535,14.7765 C142.796333,14.61 143.011067,14.5265 143.2263,14.5265 C143.437038,14.5265 143.648276,14.6065 143.811574,14.766 C144.137669,15.09 144.141165,15.62 143.818565,15.947 C143.655767,16.11 143.442032,16.1935 143.2258,16.1935 M138.151596,16 C137.696161,16 137.322625,15.6335 137.319628,15.173 C137.316133,14.713 137.686173,14.3365 138.145603,14.3335 L138.153094,14.3335 C138.608529,14.3335 138.981067,14.702 138.984063,15.1595 C138.987059,15.62 138.617518,15.996 138.158587,16 L138.151596,16 M135.724607,15.3705 C135.58528,15.3705 135.445454,15.3365 135.315115,15.2635 C134.91611,15.0335 134.775285,14.5265 135.002004,14.127 C135.155314,13.8565 135.436964,13.705 135.727104,13.705 C135.866431,13.705 136.007756,13.74 136.137095,13.8135 C136.537099,14.0395 136.676926,14.5505 136.450207,14.95 C136.297397,15.2205 136.015247,15.3705 135.724607,15.3705 M140.568597,15.3335 C140.282452,15.3335 140.006295,15.1865 139.849989,14.9235 C139.617278,14.5265 139.749613,14.017 140.145622,13.783 C140.278957,13.7045 140.424776,13.667 140.568597,13.667 C140.853244,13.667 141.129901,13.813 141.285208,14.0765 C141.517919,14.4735 141.384585,14.983 140.988576,15.2165 C140.858238,15.2965 140.712419,15.3335 140.568597,15.3335 M131.50684,13.9565 C131.183242,13.9565 130.874625,13.7665 130.74129,13.45 C130.561513,13.0265 130.75777,12.5365 131.180745,12.3565 C131.286613,12.3115 131.397476,12.29 131.506341,12.29 C131.829939,12.29 132.138057,12.4795 132.27239,12.7965 C132.451668,13.2195 132.255911,13.71 131.829939,13.8895 C131.726568,13.937 131.616704,13.9565 131.50684,13.9565 M144.766888,13.854 C144.660021,13.854 144.554652,13.833 144.453777,13.793 C144.02381,13.6195 143.821561,13.1335 143.994347,12.707 C144.125684,12.383 144.436798,12.188 144.76589,12.188 C144.87026,12.188 144.976628,12.208 145.08,12.25 C145.505971,12.4235 145.709219,12.9105 145.535435,13.3335 C145.406095,13.6595 145.092984,13.854 144.766888,13.854 M133.939822,13.61 C133.654675,13.61 133.377519,13.4635 133.221713,13.2 C132.989001,12.8035 133.121337,12.293 133.517346,12.0595 C133.649182,11.9815 133.795001,11.944 133.938323,11.944 C134.22347,11.944 134.501625,12.09 134.656432,12.3535 C134.889144,12.75 134.755809,13.26 134.362797,13.496 C134.230461,13.573 134.083643,13.61 133.939822,13.61 M142.326916,13.5465 C142.187089,13.5465 142.047263,13.5095 141.913928,13.4365 C141.513924,13.2095 141.378592,12.7 141.604312,12.3 C141.756623,12.0305 142.037275,11.879 142.326416,11.879 C142.466742,11.879 142.609066,11.9145 142.739903,11.99 C143.139408,12.217 143.278735,12.7265 143.04902,13.126 C142.896209,13.3965 142.616057,13.5465 142.326916,13.5465 M139.423019,13.45 C139.133877,13.45 138.854724,13.3 138.700914,13.0295 C138.472198,12.63 138.611525,12.1235 139.01053,11.893 C139.140869,11.8195 139.283691,11.784 139.424017,11.784 C139.713159,11.784 139.99381,11.9335 140.145622,12.2035 C140.372341,12.6035 140.23601,13.113 139.837005,13.34 C139.706667,13.417 139.563844,13.45 139.423019,13.45 M136.780797,13.4365 C136.636975,13.4365 136.494652,13.3995 136.360818,13.3235 C135.964809,13.0935 135.831475,12.5795 136.06119,12.183 C136.216996,11.918 136.49615,11.771 136.782295,11.771 C136.924119,11.771 137.067941,11.807 137.199278,11.883 C137.599781,12.113 137.732116,12.627 137.499405,13.0235 C137.346095,13.2895 137.066942,13.4365 136.780797,13.4365 M138.169074,11.2315 C137.879933,11.2315 137.599781,11.0815 137.44697,10.8115 C137.216756,10.4115 137.353586,9.905 137.752591,9.675 L137.770069,9.6675 L137.773066,9.6645 L137.783553,9.6585 C137.910395,9.5895 138.047226,9.5565 138.182558,9.5565 C138.472698,9.5565 138.753349,9.7075 138.907658,9.978 C139.134876,10.3775 138.991055,10.8885 138.59205,11.1145 L138.558092,11.132 C138.435244,11.1975 138.298414,11.2315 138.169074,11.2315 M130.937047,11.213 C130.481612,11.213 130.109074,10.843 130.105079,10.387 C130.102083,9.9265 130.471625,9.5505 130.931055,9.5465 L130.936548,9.5465 C131.392981,9.5465 131.766518,9.915 131.769514,10.3735 C131.773509,10.833 131.402969,11.21 130.944538,11.213 L130.937047,11.213 M133.271151,11.1935 C132.815217,11.1935 132.443178,10.8235 132.438684,10.3665 C132.435688,9.907 132.805229,9.53 133.264659,9.527 L133.27215,9.527 C133.727585,9.527 134.100123,9.896 134.103119,10.353 C134.107114,10.8135 133.738072,11.1865 133.278143,11.1935 L133.271151,11.1935 M140.752369,11.17 C140.29244,11.1665 139.922898,10.7895 139.925895,10.3305 C139.92939,9.874 140.299931,9.503 140.753368,9.503 L140.764854,9.503 C141.225283,9.5065 141.593825,9.8835 141.590829,10.344 C141.587333,10.8 141.215295,11.17 140.758362,11.17 L140.752369,11.17 M135.464929,11.14 C135.006498,11.14 134.635958,10.763 134.639953,10.3035 C134.639953,9.8435 135.015487,9.4735 135.475416,9.4735 C135.934846,9.4765 136.304887,9.8495 136.304887,10.31 C136.300393,10.77 135.927855,11.14 135.47242,11.14 L135.464929,11.14 M142.959631,11.1165 C142.503197,11.1165 142.130659,10.7465 142.127663,10.2905 C142.123169,9.83 142.49271,9.453 142.952639,9.45 L142.958133,9.45 C143.415565,9.45 143.788103,9.8215 143.792098,10.28 C143.795094,10.7405 143.425553,11.1135 142.966123,11.1165 L142.959631,11.1165 M145.293735,11.103 C144.836802,11.103 144.464264,10.733 144.461268,10.273 C144.457273,9.8135 144.826315,9.4365 145.286244,9.4365 L145.291737,9.4365 C145.74917,9.4365 146.122706,9.805 146.122706,10.2635 C146.128699,10.723 145.755162,11.1 145.296731,11.103 L145.293735,11.103 M139.45398,8.866 C139.310159,8.866 139.166836,8.83 139.034501,8.753 C138.638492,8.52 138.504658,8.0105 138.737869,7.6135 C138.892677,7.3495 139.171331,7.202 139.456477,7.202 C139.5993,7.202 139.74412,7.239 139.875957,7.3165 C140.272964,7.55 140.4053,8.0595 140.172589,8.456 C140.016283,8.7205 139.740625,8.866 139.45398,8.866 M136.800273,8.854 C136.511131,8.854 136.23048,8.704 136.077669,8.4365 C135.847954,8.037 135.984285,7.526 136.38329,7.3005 L136.393777,7.293 L136.404264,7.287 C136.533104,7.2135 136.672431,7.179 136.811259,7.179 C137.102398,7.179 137.386046,7.3325 137.538856,7.6035 C137.765575,8.003 137.622253,8.5095 137.222748,8.7365 L137.222748,8.7395 L137.190289,8.756 C137.066942,8.823 136.933607,8.854 136.800273,8.854 M133.896875,8.7635 C133.757548,8.7635 133.617721,8.7265 133.487383,8.6535 C133.088378,8.4265 132.944556,7.92 133.171275,7.52 C133.324585,7.247 133.606735,7.095 133.896875,7.095 C134.036202,7.095 134.177027,7.13 134.306367,7.2035 C134.706371,7.4295 134.846197,7.9405 134.619478,8.34 C134.466169,8.6105 134.186515,8.7635 133.896875,8.7635 M142.296953,8.6965 C142.010309,8.6965 141.734151,8.5495 141.577346,8.2865 C141.344634,7.89 141.477969,7.3805 141.873978,7.147 C142.006314,7.069 142.151633,7.0315 142.294955,7.0315 C142.580102,7.0315 142.857757,7.179 143.012066,7.443 C143.244777,7.8395 143.112941,8.3505 142.716432,8.5835 C142.583098,8.6595 142.439776,8.6965 142.296953,8.6965 M131.456403,8.46 C131.35403,8.46 131.247162,8.4395 131.146787,8.3995 C130.720815,8.227 130.514571,7.74 130.687856,7.3135 C130.816696,6.989 131.12831,6.7915 131.456902,6.7915 C131.561273,6.7915 131.667141,6.8115 131.769514,6.8535 C132.195486,7.027 132.402729,7.513 132.229444,7.9405 L132.229444,7.9365 C132.100104,8.263 131.785994,8.46 131.456403,8.46 M144.729934,8.3565 C144.40334,8.3565 144.097719,8.1665 143.961388,7.847 C143.781611,7.4235 143.980864,6.9335 144.40334,6.7565 C144.509208,6.7115 144.619072,6.6905 144.727437,6.6905 C145.052035,6.6905 145.361651,6.882 145.496483,7.1995 C145.672265,7.623 145.476009,8.113 145.053033,8.2895 C144.946665,8.337 144.836802,8.3565 144.729934,8.3565 M135.655193,6.9735 C135.368549,6.9735 135.092392,6.8265 134.935586,6.5635 C134.702375,6.167 134.832714,5.656 135.229222,5.42 C135.362556,5.3415 135.508375,5.304 135.652696,5.304 C135.936844,5.304 136.213501,5.4495 136.370306,5.7125 C136.604515,6.1105 136.473678,6.62 136.077669,6.8565 C135.944335,6.9335 135.798515,6.9735 135.655193,6.9735 M140.099679,6.8265 C139.700674,6.5965 139.559849,6.0865 139.789564,5.687 C139.942374,5.417 140.223026,5.267 140.511668,5.267 C140.651994,5.267 140.794317,5.3025 140.924656,5.3765 C141.324659,5.607 141.461489,6.1135 141.234771,6.513 C141.08196,6.7835 140.798312,6.9335 140.512167,6.9335 C140.372341,6.9335 140.229019,6.8995 140.099679,6.8235 L140.099679,6.8265 M138.069198,6.3005 C137.612765,6.3005 137.239228,5.932 137.236232,5.4735 C137.22924,5.013 137.599781,4.637 138.058212,4.634 L138.071695,4.634 C138.07619,4.6335 138.080684,4.6335 138.085178,4.6335 C138.538616,4.6335 138.911154,4.998 138.921641,5.454 C138.927633,5.913 138.561088,6.293 138.101658,6.3005 L138.074691,6.3005 L138.069198,6.3005 M132.991498,6.1165 C132.781259,6.1165 132.572019,6.0365 132.409221,5.877 C132.082626,5.5535 132.076134,5.026 132.398734,4.6995 C132.56253,4.5325 132.778263,4.4495 132.993995,4.4495 C133.204734,4.4495 133.414973,4.5285 133.577771,4.686 C133.904366,5.01 133.910358,5.537 133.58676,5.867 C133.42496,6.0335 133.208229,6.1165 132.991498,6.1165 M143.158884,6.0365 C142.946147,6.0365 142.735908,5.956 142.57311,5.797 C142.246515,5.4735 142.243519,4.946 142.567118,4.6195 C142.728917,4.4535 142.943151,4.37 143.156886,4.37 C143.368623,4.37 143.579861,4.451 143.74166,4.6135 C144.068255,4.9325 144.074248,5.463 143.752147,5.79 C143.58885,5.956 143.372119,6.0365 143.158884,6.0365 M135.306126,4.536 C134.983027,4.536 134.672912,4.347 134.539577,4.0295 C134.3598,3.6065 134.556556,3.116 134.979532,2.9365 C135.0859,2.891 135.196263,2.87 135.304628,2.87 C135.628227,2.87 135.936344,3.06 136.071677,3.377 C136.250954,3.8005 136.054198,4.2895 135.631223,4.4695 C135.524356,4.5135 135.414492,4.536 135.306126,4.536 M140.821783,4.493 C140.718411,4.493 140.608548,4.4735 140.509171,4.4335 C140.0832,4.2565 139.875957,3.7725 140.052238,3.3465 C140.183575,3.0235 140.492192,2.827 140.820285,2.827 C140.926154,2.827 141.03352,2.847 141.137891,2.89 C141.560866,3.0635 141.76711,3.55 141.593825,3.973 C141.461489,4.297 141.151374,4.493 140.821783,4.493 M138.046227,3.967 C137.589294,3.967 137.215757,3.5985 137.212761,3.14 C137.206768,2.6805 137.57631,2.3035 138.03574,2.3005 L138.039235,2.3005 L138.065203,2.296 L138.065203,2.3005 C138.069698,2.3 138.074192,2.3 138.078686,2.3 C138.531625,2.3 138.900667,2.6645 138.904162,3.1235 C138.911154,3.5835 138.541612,3.9595 138.081683,3.963 L138.081683,3.967 L138.052219,3.967 L138.046227,3.967 M138.114642,0.3195 C132.599485,0.3195 128.12953,4.795 128.12953,10.317 C128.12953,15.839 132.599485,20.316 138.114642,20.316 C143.629799,20.316 148.101252,15.839 148.101252,10.317 C148.101252,4.795 143.629799,0.3195 138.114642,0.3195" id="Fill-4" fill="#515151"></path>
                                    <path d="M138.170572,16.67 L138.165079,16.67 C137.702154,16.673 137.332612,17.0505 137.340103,17.5095 C137.343099,17.967 137.712641,18.337 138.17257,18.337 L138.178563,18.337 C138.634996,18.3335 139.007534,17.9565 139.000543,17.4965 C138.997546,17.039 138.628005,16.67 138.170572,16.67 M135.422482,16.145 C135.09339,16.1455 134.780778,16.3425 134.649441,16.667 C134.476656,17.0935 134.6829,17.5795 135.108871,17.75 C135.212742,17.793 135.315115,17.814 135.421983,17.814 C135.748078,17.814 136.06119,17.6165 136.190529,17.293 C136.364314,16.8665 136.161066,16.3795 135.735094,16.2065 C135.632721,16.165 135.526853,16.145 135.422482,16.145 M140.91267,16.103 C140.803805,16.103 140.692943,16.1245 140.586076,16.1695 C140.1631,16.3495 139.966344,16.8365 140.145622,17.26 C140.278957,17.5795 140.589072,17.7695 140.912171,17.7695 C141.01804,17.7695 141.127903,17.75 141.234771,17.703 C141.657247,17.523 141.857498,17.037 141.678221,16.6135 C141.542888,16.2935 141.236768,16.103 140.91267,16.103 M133.080388,14.6065 C132.866154,14.6065 132.651919,14.689 132.489121,14.8535 C132.165523,15.1835 132.170017,15.7105 132.499109,16.033 C132.657912,16.1935 132.871647,16.2735 133.080887,16.2735 C133.297618,16.2735 133.510854,16.1905 133.674151,16.023 C133.99775,15.697 133.993755,15.167 133.664164,14.8465 C133.502364,14.6865 133.291126,14.6065 133.080388,14.6065 M143.2263,14.5265 C143.011067,14.5265 142.796333,14.61 142.633535,14.7765 C142.309937,15.103 142.312933,15.63 142.639528,15.953 C142.802825,16.113 143.016061,16.1935 143.2258,16.1935 C143.442032,16.1935 143.655767,16.11 143.818565,15.947 C144.141165,15.62 144.137669,15.09 143.811574,14.766 C143.648276,14.6065 143.437038,14.5265 143.2263,14.5265 M131.506341,12.29 C131.397476,12.29 131.286613,12.3115 131.180745,12.3565 C130.75777,12.5365 130.561513,13.0265 130.74129,13.45 C130.874625,13.7665 131.183242,13.9565 131.50684,13.9565 C131.616704,13.9565 131.726568,13.937 131.829939,13.8895 C132.255911,13.71 132.451668,13.2195 132.27239,12.7965 C132.138057,12.4795 131.829939,12.29 131.506341,12.29 M144.76589,12.188 C144.436798,12.188 144.125684,12.383 143.994347,12.707 C143.821561,13.1335 144.02381,13.6195 144.453777,13.793 C144.554652,13.833 144.660021,13.854 144.766888,13.854 C145.092984,13.854 145.406095,13.6595 145.535435,13.3335 C145.709219,12.9105 145.505971,12.4235 145.08,12.25 C144.976628,12.208 144.87026,12.188 144.76589,12.188 M130.936548,9.5465 L130.931055,9.5465 C130.471625,9.5505 130.102083,9.9265 130.105079,10.387 C130.109074,10.843 130.481612,11.213 130.937047,11.213 L130.944538,11.213 C131.402969,11.21 131.773509,10.833 131.769514,10.3735 C131.766518,9.915 131.392981,9.5465 130.936548,9.5465 M145.291737,9.4365 L145.286244,9.4365 C144.826315,9.4365 144.457273,9.8135 144.461268,10.273 C144.464264,10.733 144.836802,11.103 145.293735,11.103 L145.296731,11.103 C145.755162,11.1 146.128699,10.723 146.122706,10.2635 C146.122706,9.805 145.74917,9.4365 145.291737,9.4365 M131.456902,6.7915 C131.12831,6.7915 130.816696,6.989 130.687856,7.3135 C130.514571,7.74 130.720815,8.227 131.146787,8.3995 C131.247162,8.4395 131.35403,8.46 131.456403,8.46 C131.785994,8.46 132.100104,8.263 132.229444,7.9365 L132.229444,7.9405 C132.402729,7.513 132.195486,7.027 131.769514,6.8535 C131.667141,6.8115 131.561273,6.7915 131.456902,6.7915 M144.727437,6.6905 C144.619072,6.6905 144.509208,6.7115 144.40334,6.7565 C143.980864,6.9335 143.781611,7.4235 143.961388,7.847 C144.097719,8.1665 144.40334,8.3565 144.729934,8.3565 C144.836802,8.3565 144.946665,8.337 145.053033,8.2895 C145.476009,8.113 145.672265,7.623 145.496483,7.1995 C145.361651,6.882 145.052035,6.6905 144.727437,6.6905 M132.993995,4.4495 C132.778263,4.4495 132.56253,4.5325 132.398734,4.6995 C132.076134,5.026 132.082626,5.5535 132.409221,5.877 C132.572019,6.0365 132.781259,6.1165 132.991498,6.1165 C133.208229,6.1165 133.42496,6.0335 133.58676,5.867 C133.910358,5.537 133.904366,5.01 133.577771,4.686 C133.414973,4.5285 133.204734,4.4495 132.993995,4.4495 M143.156886,4.37 C142.943151,4.37 142.728917,4.4535 142.567118,4.6195 C142.243519,4.946 142.246515,5.4735 142.57311,5.797 C142.735908,5.956 142.946147,6.0365 143.158884,6.0365 C143.372119,6.0365 143.58885,5.956 143.752147,5.79 C144.074248,5.463 144.068255,4.9325 143.74166,4.6135 C143.579861,4.451 143.368623,4.37 143.156886,4.37 M135.304628,2.87 C135.196263,2.87 135.0859,2.891 134.979532,2.9365 C134.556556,3.116 134.3598,3.6065 134.539577,4.0295 C134.672912,4.347 134.983027,4.536 135.306126,4.536 C135.414492,4.536 135.524356,4.5135 135.631223,4.4695 C136.054198,4.2895 136.250954,3.8005 136.071677,3.377 C135.936344,3.06 135.628227,2.87 135.304628,2.87 M140.820285,2.827 C140.492192,2.827 140.183575,3.0235 140.052238,3.3465 C139.875957,3.7725 140.0832,4.2565 140.509171,4.4335 C140.608548,4.4735 140.718411,4.493 140.821783,4.493 C141.151374,4.493 141.461489,4.297 141.593825,3.973 C141.76711,3.55 141.560866,3.0635 141.137891,2.89 C141.03352,2.847 140.926154,2.827 140.820285,2.827 M138.065203,2.296 L138.039235,2.3005 L138.03574,2.3005 C137.57631,2.3035 137.206768,2.6805 137.212761,3.14 C137.215757,3.5985 137.589294,3.967 138.046227,3.967 L138.052219,3.967 L138.081683,3.967 L138.081683,3.963 C138.541612,3.9595 138.911154,3.5835 138.904162,3.1235 C138.900667,2.6645 138.531625,2.3 138.078686,2.3 C138.074192,2.3 138.069698,2.3 138.065203,2.3005 L138.065203,2.296" id="Fill-5" fill="#1E1E1E"></path>
                                    <path d="M138.153094,14.3335 L138.145603,14.3335 C137.686173,14.3365 137.316133,14.713 137.319628,15.173 C137.322625,15.6335 137.696161,16 138.151596,16 L138.158587,16 C138.617518,15.996 138.987059,15.62 138.984063,15.1595 C138.981067,14.702 138.608529,14.3335 138.153094,14.3335 M135.727104,13.705 C135.436964,13.705 135.155314,13.8565 135.002004,14.127 C134.775285,14.5265 134.91611,15.0335 135.315115,15.2635 C135.445454,15.3365 135.58528,15.3705 135.724607,15.3705 C136.015247,15.3705 136.297397,15.2205 136.450207,14.95 C136.676926,14.5505 136.537099,14.0395 136.137095,13.8135 C136.007756,13.74 135.866431,13.705 135.727104,13.705 M140.568597,13.667 C140.424776,13.667 140.278957,13.7045 140.145622,13.783 C139.749613,14.017 139.617278,14.5265 139.849989,14.9235 C140.006295,15.1865 140.282452,15.3335 140.568597,15.3335 C140.712419,15.3335 140.858238,15.2965 140.988576,15.2165 C141.384585,14.983 141.517919,14.4735 141.285208,14.0765 C141.129901,13.813 140.853244,13.667 140.568597,13.667 M133.938323,11.944 C133.795001,11.944 133.649182,11.9815 133.517346,12.0595 C133.121337,12.293 132.989001,12.8035 133.221713,13.2 C133.377519,13.4635 133.654675,13.61 133.939822,13.61 C134.083643,13.61 134.230461,13.573 134.362797,13.496 C134.755809,13.26 134.889144,12.75 134.656432,12.3535 C134.501625,12.09 134.22347,11.944 133.938323,11.944 M142.326416,11.879 C142.037275,11.879 141.756623,12.0305 141.604312,12.3 C141.378592,12.7 141.513924,13.2095 141.913928,13.4365 C142.047263,13.5095 142.187089,13.5465 142.326916,13.5465 C142.616057,13.5465 142.896209,13.3965 143.04902,13.126 C143.278735,12.7265 143.139408,12.217 142.739903,11.99 C142.609066,11.9145 142.466742,11.879 142.326416,11.879 M133.27215,9.527 L133.264659,9.527 C132.805229,9.53 132.435688,9.907 132.438684,10.3665 C132.443178,10.8235 132.815217,11.1935 133.271151,11.1935 L133.278143,11.1935 C133.738072,11.1865 134.107114,10.8135 134.103119,10.353 C134.100123,9.896 133.727585,9.527 133.27215,9.527 M142.958133,9.45 L142.952639,9.45 C142.49271,9.453 142.123169,9.83 142.127663,10.2905 C142.130659,10.7465 142.503197,11.1165 142.959631,11.1165 L142.966123,11.1165 C143.425553,11.1135 143.795094,10.7405 143.792098,10.28 C143.788103,9.8215 143.415565,9.45 142.958133,9.45 M133.896875,7.095 C133.606735,7.095 133.324585,7.247 133.171275,7.52 C132.944556,7.92 133.088378,8.4265 133.487383,8.6535 C133.617721,8.7265 133.757548,8.7635 133.896875,8.7635 C134.186515,8.7635 134.466169,8.6105 134.619478,8.34 C134.846197,7.9405 134.706371,7.4295 134.306367,7.2035 C134.177027,7.13 134.036202,7.095 133.896875,7.095 M142.294955,7.0315 C142.151633,7.0315 142.006314,7.069 141.873978,7.147 C141.477969,7.3805 141.344634,7.89 141.577346,8.2865 C141.734151,8.5495 142.010309,8.6965 142.296953,8.6965 C142.439776,8.6965 142.583098,8.6595 142.716432,8.5835 C143.112941,8.3505 143.244777,7.8395 143.012066,7.443 C142.857757,7.179 142.580102,7.0315 142.294955,7.0315 M135.652696,5.304 C135.508375,5.304 135.362556,5.3415 135.229222,5.42 C134.832714,5.656 134.702375,6.167 134.935586,6.5635 C135.092392,6.8265 135.368549,6.9735 135.655193,6.9735 C135.798515,6.9735 135.944335,6.9335 136.077669,6.8565 C136.473678,6.62 136.604515,6.1105 136.370306,5.7125 C136.213501,5.4495 135.936844,5.304 135.652696,5.304 M140.511668,5.267 C140.223026,5.267 139.942374,5.417 139.789564,5.687 C139.559849,6.0865 139.700674,6.5965 140.099679,6.8265 L140.099679,6.8235 C140.229019,6.8995 140.372341,6.9335 140.512167,6.9335 C140.798312,6.9335 141.08196,6.7835 141.234771,6.513 C141.461489,6.1135 141.324659,5.607 140.924656,5.3765 C140.794317,5.3025 140.651994,5.267 140.511668,5.267 M138.085178,4.6335 C138.080684,4.6335 138.07619,4.6335 138.071695,4.634 L138.058212,4.634 C137.599781,4.637 137.22924,5.013 137.236232,5.4735 C137.239228,5.932 137.612765,6.3005 138.069198,6.3005 L138.074691,6.3005 L138.101658,6.3005 C138.561088,6.293 138.927633,5.913 138.921641,5.454 C138.911154,4.998 138.538616,4.6335 138.085178,4.6335" id="Fill-6" fill="#1E1E1E"></path>
                                    <path d="M139.424017,11.784 C139.283691,11.784 139.140869,11.8195 139.01053,11.893 C138.611525,12.1235 138.472198,12.63 138.700914,13.0295 C138.854724,13.3 139.133877,13.45 139.423019,13.45 C139.563844,13.45 139.706667,13.417 139.837005,13.34 C140.23601,13.113 140.372341,12.6035 140.145622,12.2035 C139.99381,11.9335 139.713159,11.784 139.424017,11.784 M136.782295,11.771 C136.49615,11.771 136.216996,11.918 136.06119,12.183 C135.831475,12.5795 135.964809,13.0935 136.360818,13.3235 C136.494652,13.3995 136.636975,13.4365 136.780797,13.4365 C137.066942,13.4365 137.346095,13.2895 137.499405,13.0235 C137.732116,12.627 137.599781,12.113 137.199278,11.883 C137.067941,11.807 136.924119,11.771 136.782295,11.771 M140.753368,9.503 C140.299931,9.503 139.92939,9.874 139.925895,10.3305 C139.922898,10.7895 140.29244,11.1665 140.752369,11.17 L140.758362,11.17 C141.215295,11.17 141.587333,10.8 141.590829,10.344 C141.593825,9.8835 141.225283,9.5065 140.764854,9.503 L140.753368,9.503 M135.475416,9.4735 C135.015487,9.4735 134.639953,9.8435 134.639953,10.3035 C134.635958,10.763 135.006498,11.14 135.464929,11.14 L135.47242,11.14 C135.927855,11.14 136.300393,10.77 136.304887,10.31 C136.304887,9.8495 135.934846,9.4765 135.475416,9.4735 M139.456477,7.202 C139.171331,7.202 138.892677,7.3495 138.737869,7.6135 C138.504658,8.0105 138.638492,8.52 139.034501,8.753 C139.166836,8.83 139.310159,8.866 139.45398,8.866 C139.740625,8.866 140.016283,8.7205 140.172589,8.456 C140.4053,8.0595 140.272964,7.55 139.875957,7.3165 C139.74412,7.239 139.5993,7.202 139.456477,7.202 M136.811259,7.179 C136.672431,7.179 136.533104,7.2135 136.404264,7.287 L136.393777,7.293 L136.38329,7.3005 C135.984285,7.526 135.847954,8.037 136.077669,8.4365 C136.23048,8.704 136.511131,8.854 136.800273,8.854 C136.933607,8.854 137.066942,8.823 137.190289,8.756 L137.222748,8.7395 L137.222748,8.7365 C137.622253,8.5095 137.765575,8.003 137.538856,7.6035 C137.386046,7.3325 137.102398,7.179 136.811259,7.179" id="Fill-7" fill="#1E1E1E"></path>
                                    <path d="M138.182558,9.5565 C138.047226,9.5565 137.910395,9.5895 137.783553,9.6585 L137.773066,9.6645 L137.770069,9.6675 L137.752591,9.675 C137.353586,9.905 137.216756,10.4115 137.44697,10.8115 C137.599781,11.0815 137.879933,11.2315 138.169074,11.2315 C138.298414,11.2315 138.435244,11.1975 138.558092,11.132 L138.59205,11.1145 C138.991055,10.8885 139.134876,10.3775 138.907658,9.978 C138.753349,9.7075 138.472698,9.5565 138.182558,9.5565" id="Fill-8" fill="#1E1E1E"></path>
                                    <path d="M5.41028748,15.3015 C3.53111896,15.3015 2.00800867,13.7765 2.00800867,11.896 C2.00800867,10.015 3.53111896,8.49 5.41028748,8.49 C7.28795787,8.49 8.81106815,10.015 8.81106815,11.896 C8.81106815,13.7765 7.28795787,15.3015 5.41028748,15.3015 M5.41028748,6.6335 C2.50639033,6.6335 0.15380917,8.9895 0.15380917,11.896 C0.15380917,14.802 2.50639033,17.158 5.41028748,17.158 C8.31218711,17.158 10.665767,14.802 10.665767,11.896 C10.665767,8.9895 8.31218711,6.6335 5.41028748,6.6335" id="Fill-9" fill="#000000"></path>
                                    <path d="M5.41028748,8.49 C3.53111896,8.49 2.00800867,10.015 2.00800867,11.896 C2.00800867,13.7765 3.53111896,15.3015 5.41028748,15.3015 C7.28795787,15.3015 8.81106815,13.7765 8.81106815,11.896 C8.81106815,10.015 7.28795787,8.49 5.41028748,8.49" id="Fill-10" fill="#262626"></path>
                                    <path d="M264.251644,7.9495 C262.073846,7.9495 260.310035,9.716 260.310035,11.896 C260.310035,14.0755 262.073846,15.843 264.251644,15.843 C266.427944,15.843 268.192755,14.0755 268.192755,11.896 C268.192755,9.716 266.427944,7.9495 264.251644,7.9495" id="Fill-11" fill="#000000"></path>
                                    <path d="M276.075974,9.24 C274.611791,9.24 273.424264,10.429 273.424264,11.896 C273.424264,13.3625 274.611791,14.5515 276.075974,14.5515 C277.541656,14.5515 278.728683,13.3625 278.728683,11.896 C278.728683,10.429 277.541656,9.24 276.075974,9.24" id="Fill-12" fill="#000000"></path>
                                </g>
                            </g>
                            <rect id="screen" fill="#1D1D1D" x="21" y="66" width="360" height="640"></rect>
                        </g>
                    </g>
                </g>
                <g id="Group-2" transform="translate(78.000000, 117.000000)">
                    <mask id="mask-5" fill="white">
                        <use xlink:href="#path-4"></use>
                    </mask>
                    <g id="Mask"></g>
                    <g mask="url(#mask-5)">
                        <g transform="translate(-13.000000, 0.000000)">
                            <text id="INTERVAL-TRAINER" stroke="none" fill="none" font-family="Roboto-Bold, Roboto" font-size="22.5276461" font-weight="bold">
                                <tspan x="31.361596" y="61.1579779" fill="#FFFFFF">INTERVAL TRAINER</tspan>
                            </text>
                            <text id="HISTORY" stroke="none" fill="none" font-family="Roboto-Bold, Roboto" font-size="22.5276461" font-weight="bold">
                                <tspan x="298.915212" y="61.1579779" fill="#727272">HISTORY</tspan>
                            </text>
                            <use id="Rectangle-36-Copy-4" stroke="#00C578" mask="url(#mask-7)" stroke-width="12" fill-opacity="0.432546422" fill="#00C578" fill-rule="evenodd" xlink:href="#path-6"></use>
                            <rect id="Rectangle-36-Copy-2" stroke="none" fill="#108ED1" fill-rule="evenodd" x="325.494981" y="122.432859" width="40.9170823" height="76.3981043"></rect>
                            <rect id="Rectangle-36-Copy" stroke="none" fill="#F2A715" fill-rule="evenodd" x="169.667051" y="122.432859" width="150.927681" height="76.3981043"></rect>
                            <rect id="Rectangle-36" stroke="none" fill="#08A886" fill-rule="evenodd" x="12.7406484" y="122.432859" width="151.701914" height="76.3981043"></rect>
                            <g id="Rectangle-36-Copy-6" stroke="none" fill="none" fill-rule="evenodd">
                                <use fill="#00C578" xlink:href="#path-9"></use>
                                <use fill-opacity="0.910000026" fill="url(#linearGradient-8)" xlink:href="#path-9"></use>
                            </g>
                            <use id="Rectangle-36-Copy-3" stroke="#F6D922" mask="url(#mask-11)" stroke-width="12" fill-opacity="0.432546422" fill="#F6D922" fill-rule="evenodd" xlink:href="#path-10"></use>
                            <g id="Material/Android/Status-bar-content" stroke="none" fill="none" transform="translate(247.952618, 0.000000)">
                                <rect id="bounds" x="0" y="0" width="118" height="24"></rect>
                                <g id="wifi" stroke-width="1" fill-rule="evenodd" transform="translate(8.000000, 6.000000)">
                                    <mask id="mask-13" fill="white">
                                        <use xlink:href="#path-12"></use>
                                    </mask>
                                    <g id="wifi-mask"></g>
                                    <path d="M8,0 C1.4,0 -4,5.4 -4,12 C-4,18.6 1.4,24 8,24 C14.6,24 20,18.6 20,12 C20,5.4 14.6,0 8,0 L8,0 Z M8,21 C3,21 -1,17 -1,12 C-1,7 3,3 8,3 C13,3 17,7 17,12 C17,17 13,21 8,21 L8,21 Z" id="Shape" fill-opacity="0.3" fill="#FFFFFF" mask="url(#mask-13)"></path>
                                    <path d="M8,3 C3,3 -1,7 -1,12 C-1,17 3,21 8,21 C13,21 17,17 17,12 C17,7 13,3 8,3 L8,3 Z M8,18 C4.7,18 2,15.3 2,12 C2,8.7 4.7,6 8,6 C11.3,6 14,8.7 14,12 C14,15.3 11.3,18 8,18 L8,18 Z" id="Shape" fill-opacity="0.9" fill="#FFFFFF" mask="url(#mask-13)"></path>
                                    <path d="M8,6 C4.7,6 2,8.7 2,12 C2,15.3 4.7,18 8,18 C11.3,18 14,15.3 14,12 C14,8.7 11.3,6 8,6 L8,6 Z M8,15 C6.3,15 5,13.7 5,12 C5,10.3 6.3,9 8,9 C9.7,9 11,10.3 11,12 C11,13.7 9.7,15 8,15 L8,15 Z" id="Shape" fill-opacity="0.9" fill="#FFFFFF" mask="url(#mask-13)"></path>
                                    <circle id="Oval" fill-opacity="0.9" fill="#FFFFFF" mask="url(#mask-13)" cx="8" cy="12" r="3"></circle>
                                </g>
                                <g id="reception" stroke-width="1" fill-rule="evenodd" transform="translate(34.000000, 6.000000)">
                                    <mask id="mask-15" fill="white">
                                        <use xlink:href="#path-14"></use>
                                    </mask>
                                    <g id="reception-mask"></g>
                                    <rect id="Rectangle-path" fill-opacity="0.3" fill="#FFFFFF" mask="url(#mask-15)" x="9" y="0" width="3" height="12"></rect>
                                    <rect id="Rectangle-path" fill-opacity="0.3" fill="#FFFFFF" mask="url(#mask-15)" x="6" y="0" width="3" height="12"></rect>
                                    <rect id="Rectangle-path" fill-opacity="0.9" fill="#FFFFFF" mask="url(#mask-15)" x="3" y="0" width="3" height="12"></rect>
                                    <rect id="Rectangle-path" fill-opacity="0.9" fill="#FFFFFF" mask="url(#mask-15)" x="0" y="0" width="3" height="12"></rect>
                                </g>
                                <g id="battery" stroke-width="1" fill-rule="evenodd" transform="translate(60.000000, 5.000000)">
                                    <mask id="mask-17" fill="white">
                                        <use xlink:href="#path-16"></use>
                                    </mask>
                                    <g id="battery-mask"></g>
                                    <rect id="Rectangle-path" fill-opacity="0.9" fill="#FFFFFF" mask="url(#mask-17)" x="0" y="10" width="8" height="3"></rect>
                                    <rect id="Rectangle-path" fill-opacity="0.9" fill="#FFFFFF" mask="url(#mask-17)" x="0" y="7" width="8" height="3"></rect>
                                    <rect id="Rectangle-path" fill-opacity="0.3" fill="#FFFFFF" mask="url(#mask-17)" x="0" y="4" width="8" height="3"></rect>
                                    <rect id="Rectangle-path" fill-opacity="0.3" fill="#FFFFFF" mask="url(#mask-17)" x="0" y="1" width="8" height="3"></rect>
                                    <rect id="Rectangle-path" fill-opacity="0.3" fill="#FFFFFF" mask="url(#mask-17)" x="2" y="0" width="4" height="1"></rect>
                                </g>
                                <g id="time" opacity="0.9" stroke-width="1" fill-rule="evenodd" transform="translate(77.000000, 5.000000)" font-size="13" font-family="Roboto-Regular, Roboto" fill="#FFFFFF" font-weight="normal">
                                    <text id="12:30">
                                        <tspan x="2.27373675e-13" y="12">12:30</tspan>
                                    </text>
                                </g>
                            </g>
                            <g id="WARM-UP" stroke="none" fill="none" opacity="0.820895522" fill-opacity="1">
                                <use fill="#FFFFFF" filter="url(#filter-19)" xlink:href="#text-18"></use>
                                <use fill="#FFFFFF" xlink:href="#text-18"></use>
                            </g>
                            <g id="GO-FAST" stroke="none" fill="none" opacity="0.917152519" fill-opacity="1">
                                <use fill="#FEFAED" filter="url(#filter-21)" xlink:href="#text-20"></use>
                                <use fill="#FEFAED" xlink:href="#text-20"></use>
                            </g>
                            <g id="Rectangle-36-Copy-9" stroke="none" fill="none" fill-rule="evenodd">
                                <use fill="#F6D922" xlink:href="#path-23"></use>
                                <use fill-opacity="0.390000015" fill="url(#linearGradient-22)" xlink:href="#path-23"></use>
                            </g>
                            <use id="Rectangle-36-Copy-5" stroke="#00C3EC" mask="url(#mask-25)" stroke-width="12" fill-opacity="0.432546422" fill="#00C3EC" fill-rule="evenodd" xlink:href="#path-24"></use>
                            <g id="Rectangle-36-Copy-10" stroke="none" fill="none" fill-rule="evenodd">
                                <use fill="#00C3EC" xlink:href="#path-27"></use>
                                <use fill="url(#linearGradient-26)" xlink:href="#path-27"></use>
                            </g>
                            <g id="3m0s" stroke="none" fill="none" fill-opacity="1">
                                <use fill="#FFFFFF" filter="url(#filter-29)" xlink:href="#text-28"></use>
                                <use fill="#FFFFFF" xlink:href="#text-28"></use>
                            </g>
                            <g id="Triangle-1-Copy-2" stroke="none" fill="none" opacity="0.820895522" transform="translate(37.540186, 161.611217) rotate(90.000000) translate(-37.540186, -161.611217) ">
                                <use fill="black" fill-opacity="1" filter="url(#filter-31)" xlink:href="#path-30"></use>
                                <use fill="#FFFFFF" fill-rule="evenodd" xlink:href="#path-30"></use>
                            </g>
                            <ellipse id="Oval-5-Copy-7" stroke="#FFFFFF" stroke-width="3" fill="#FFFFFF" fill-rule="evenodd" cx="91.6346633" cy="93.5387046" rx="6.37032419" ry="6.36650869"></ellipse>
                            <ellipse id="Oval-5-Copy-6" stroke="#FFFFFF" stroke-width="3" fill="none" opacity="0.310000002" cx="115.15586" cy="93.5387046" rx="6.37032419" ry="6.36650869"></ellipse>
                            <ellipse id="Oval-5-Copy-5" stroke="#FFFFFF" stroke-width="3" fill="none" opacity="0.310000002" cx="136.716958" cy="93.5387046" rx="6.37032419" ry="6.36650869"></ellipse>
                            <ellipse id="Oval-5-Copy-4" stroke="#FFFFFF" stroke-width="3" fill="none" opacity="0.310000002" cx="159.258105" cy="93.5387046" rx="6.37032419" ry="6.36650869"></ellipse>
                            <text id="SETS:" stroke="none" fill="none" font-family="Helvetica-Bold, Helvetica" font-size="14.6919431" font-weight="bold">
                                <tspan x="30.3815461" y="98.2338073" fill="#919191">SETS:</tspan>
                            </text>
                            <text id="+--------" stroke="none" fill="none" font-family="Helvetica-Bold, Helvetica" font-size="19.5892575" font-weight="bold">
                                <tspan x="180.329177" y="100.295419" fill="#919191">+       -</tspan>
                            </text>
                            <path d="M209.849096,87.6619273 L209.849096,101.501737" id="Line" stroke="#979797" stroke-width="2" stroke-linecap="round" stroke-linejoin="round" fill="none" opacity="0.24376166"></path>
                            <text id="9m59s" stroke="none" fill="none" font-family="Roboto-Light, Roboto" font-size="34.2812006" font-weight="300">
                                <tspan x="36.3269668" y="254.338073" fill="#FFFFFF">9m59s</tspan>
                            </text>
                        </g>
                    </g>
                </g>
            </g>
        </g>
    </g>
</svg>