<svg width="809" height="272" viewBox="0 0 809 272" fill="none" xmlns="http://www.w3.org/2000/svg">
<path d="M6.23388 108.277V101.559L58.737 19.8574H19.8052L14.596 39.5975L7.7418 38.2266L7.87888 12.3177H74.7759V19.309L22.5469 100.737H64.9058L69.9779 81.4081L76.8321 82.7789V108.277H6.23388ZM122.986 108.277V97.1727C121.158 99.3661 118.827 101.377 115.994 103.204C113.253 105.032 110.328 106.54 107.221 107.728C104.205 108.825 101.372 109.373 98.7216 109.373C93.878 109.373 89.6284 107.82 85.9728 104.712C82.3173 101.605 80.4895 97.1727 80.4895 91.4152C80.4895 86.8457 81.6318 83.1445 83.9166 80.3114C86.2927 77.3869 90.4509 75.1479 96.3912 73.5943C100.869 72.4062 105.165 71.4466 109.277 70.7155C113.481 69.893 118.05 69.2076 122.986 68.6593V57.4184C122.986 52.3006 121.615 48.6907 118.873 46.5887C116.131 44.3954 112.841 43.2987 109.003 43.2987C106.901 43.2987 104.753 43.4358 102.56 43.71C100.367 43.9841 98.219 44.4868 96.117 45.2179L92.2787 60.8455L85.1503 59.6117V41.7908C88.7145 40.2372 92.5072 38.8663 96.5283 37.6783C100.641 36.3988 105.028 35.7591 109.688 35.7591C114.441 35.7591 118.736 36.4445 122.574 37.8154C126.504 39.0948 129.611 41.3339 131.896 44.5325C134.181 47.7311 135.323 52.0721 135.323 57.5555V99.6402L145.193 101.971L143.822 108.277H122.986ZM94.1979 90.3185C94.1979 94.6138 95.2032 97.4469 97.2137 98.8177C99.3157 100.097 101.737 100.737 104.479 100.737C106.673 100.737 109.003 100.189 111.47 99.0919C113.938 97.9952 116.177 96.6244 118.188 94.9794C120.29 93.243 121.889 91.598 122.986 90.0444V74.4168C120.061 74.7823 117.137 75.1936 114.212 75.6505C111.288 76.0161 108.363 76.6101 105.439 77.4326C101.143 78.6207 98.1733 80.3571 96.5283 82.6418C94.9747 84.9266 94.1979 87.4855 94.1979 90.3185ZM190.832 45.6292C186.72 44.0755 183.156 43.2987 180.14 43.2987C175.57 43.2987 171.549 44.5782 168.076 47.1371C164.604 49.6046 161.862 52.986 159.851 57.2813C157.932 61.4852 156.973 66.2831 156.973 71.6751C156.973 76.5187 157.795 81.1796 159.44 85.6577C161.085 90.1357 163.644 93.7913 167.117 96.6244C170.59 99.3661 174.976 100.737 180.277 100.737C183.384 100.737 186.766 100.143 190.421 98.9548C194.168 97.7667 197.458 96.1217 200.291 94.0198L203.307 99.229C199.651 102.702 195.63 105.352 191.244 107.18C186.857 108.916 182.333 109.784 177.672 109.784C171.458 109.784 165.746 108.368 160.537 105.535C155.328 102.61 151.124 98.3608 147.925 92.786C144.818 87.2113 143.264 80.4942 143.264 72.6347C143.264 64.7752 145.001 58.1038 148.473 52.6204C151.946 47.1371 156.47 42.9789 162.045 40.1458C167.62 37.2213 173.514 35.7591 179.729 35.7591C187.405 35.7591 194.671 37.9068 201.525 42.2021V60.4342L194.671 61.8051L190.832 45.6292ZM226.99 47.2742C230.098 43.5272 233.89 40.6941 238.368 38.775C242.846 36.7644 246.959 35.7591 250.706 35.7591C257.286 35.7591 262.358 37.7697 265.922 41.7908C269.578 45.8119 271.406 52.2092 271.406 60.9826L271.543 99.7773L282.509 102.108L281.139 108.277H248.65V104.164L259.205 100.051V63.7242C259.205 59.1548 258.703 55.682 257.697 53.3059C256.783 50.8383 255.321 49.1933 253.311 48.3708C251.391 47.4569 248.97 47 246.045 47C242.39 47 238.734 47.6397 235.078 48.9192C231.514 50.1986 228.818 51.8893 226.99 53.9913V99.7773L237.272 101.696L235.901 108.277H202.589V104.164L214.653 100.051V16.5674L203.275 14.374L202.589 8.75357L226.99 5.46355V47.2742ZM315.882 16.019C318.258 11.9979 321.457 8.84496 325.478 6.56022C329.499 8.66217 332.56 11.7237 334.662 15.7448C332.378 19.6746 329.179 22.8275 325.067 25.2036C321.045 23.1017 317.984 20.0401 315.882 16.019ZM332.743 99.7773L343.025 101.696L341.654 108.277H308.342V104.164L320.406 100.051V47L309.302 44.9437L308.616 39.3233L332.743 36.0333V99.7773ZM345.586 86.6173L352.715 85.3835L356.416 98.9548C358.792 99.9601 360.894 100.737 362.722 101.285C364.55 101.834 366.789 102.108 369.439 102.108C373.551 102.108 376.887 101.194 379.446 99.3661C382.096 97.5383 383.467 94.5681 383.559 90.4556C383.65 87.8053 382.827 85.612 381.091 83.8756C379.355 82.1392 377.07 80.6769 374.237 79.4889C371.495 78.2094 368.571 76.93 365.463 75.6505C362.356 74.3711 359.386 72.9089 356.553 71.2639C353.72 69.6188 351.389 67.5626 349.562 65.0951C347.825 62.5362 346.957 59.3375 346.957 55.4992C346.957 51.935 347.78 48.9192 349.425 46.4517C351.161 43.9841 353.446 41.9736 356.279 40.42C359.112 38.8663 362.219 37.7697 365.601 37.1299C368.982 36.3988 372.318 36.0333 375.608 36.0333C379.537 36.0333 383.102 36.4445 386.3 37.267C389.59 38.0895 391.921 39.1862 393.291 40.557V57.6925L386.163 58.9263L382.462 44.9437C380.908 44.4868 379.492 44.1669 378.212 43.9841C376.933 43.71 375.196 43.5729 373.003 43.5729C369.53 43.5729 366.423 44.2583 363.681 45.6292C361.031 47 359.706 49.6046 359.706 53.4429C359.706 56.1846 360.574 58.4693 362.311 60.2971C364.138 62.1249 366.423 63.7242 369.165 65.0951C371.998 66.3745 374.968 67.654 378.075 68.9334C381.182 70.1215 384.107 71.538 386.849 73.183C389.682 74.828 391.966 76.8843 393.703 79.3518C395.531 81.7279 396.444 84.7438 396.444 88.3993C396.444 93.7913 395.119 98.0409 392.469 101.148C389.91 104.255 386.574 106.449 382.462 107.728C378.349 109.008 373.963 109.647 369.302 109.647C364.824 109.647 360.483 109.19 356.279 108.277C352.075 107.363 348.511 106.266 345.586 104.987V86.6173ZM469.256 108.277V97.1727C467.429 99.3661 465.098 101.377 462.265 103.204C459.523 105.032 456.599 106.54 453.492 107.728C450.476 108.825 447.643 109.373 444.992 109.373C440.149 109.373 435.899 107.82 432.244 104.712C428.588 101.605 426.76 97.1727 426.76 91.4152C426.76 86.8457 427.903 83.1445 430.187 80.3114C432.564 77.3869 436.722 75.1479 442.662 73.5943C447.14 72.4062 451.435 71.4466 455.548 70.7155C459.752 69.893 464.321 69.2076 469.256 68.6593V57.4184C469.256 52.3006 467.886 48.6907 465.144 46.5887C462.402 44.3954 459.112 43.2987 455.274 43.2987C453.172 43.2987 451.024 43.4358 448.831 43.71C446.637 43.9841 444.49 44.4868 442.388 45.2179L438.55 60.8455L431.421 59.6117V41.7908C434.985 40.2372 438.778 38.8663 442.799 37.6783C446.912 36.3988 451.298 35.7591 455.959 35.7591C460.711 35.7591 465.007 36.4445 468.845 37.8154C472.775 39.0948 475.882 41.3339 478.167 44.5325C480.452 47.7311 481.594 52.0721 481.594 57.5555V99.6402L491.464 101.971L490.093 108.277H469.256ZM440.469 90.3185C440.469 94.6138 441.474 97.4469 443.485 98.8177C445.587 100.097 448.008 100.737 450.75 100.737C452.943 100.737 455.274 100.189 457.741 99.0919C460.209 97.9952 462.448 96.6244 464.458 94.9794C466.56 93.243 468.16 91.598 469.256 90.0444V74.4168C466.332 74.7823 463.407 75.1936 460.483 75.6505C457.559 76.0161 454.634 76.6101 451.71 77.4326C447.414 78.6207 444.444 80.3571 442.799 82.6418C441.246 84.9266 440.469 87.4855 440.469 90.3185Z" fill="black"/>
<path d="M310.833 188.836C310.833 197.685 308.944 205.751 305.164 213.033C301.477 220.315 296.039 226.122 288.849 230.454C281.659 234.787 272.902 236.953 262.578 236.953H221.79V232.113L234.925 228.104V149.015L221.79 146.388L223.173 140.166H262.578C270.598 140.166 277.603 141.457 283.595 144.038C289.679 146.527 294.702 150.029 298.666 154.546C302.722 159.063 305.764 164.271 307.791 170.17C309.819 175.977 310.833 182.199 310.833 188.836ZM248.752 147.771V229.348H260.228C271.658 229.348 280.507 225.707 286.775 218.425C293.135 211.143 296.315 201.28 296.315 188.836C296.315 180.54 295.071 173.304 292.582 167.128C290.093 160.952 286.176 156.205 280.83 152.887C275.575 149.476 268.708 147.771 260.228 147.771H248.752ZM329.584 199.897C329.584 205.981 330.644 211.235 332.764 215.66C334.976 219.992 337.926 223.357 341.613 225.753C345.392 228.058 349.586 229.21 354.195 229.21C360.739 229.21 367.515 226.952 374.52 222.435L377.562 227.689C373.045 231.192 368.39 233.819 363.597 235.57C358.804 237.321 354.103 238.197 349.494 238.197C343.41 238.197 337.787 236.768 332.625 233.911C327.556 230.961 323.454 226.675 320.32 221.052C317.278 215.429 315.757 208.654 315.757 200.727C315.757 194.643 316.725 189.297 318.66 184.688C320.596 180.079 323.177 176.254 326.403 173.212C329.63 170.078 333.225 167.774 337.188 166.299C341.152 164.732 345.115 163.948 349.079 163.948C355.255 163.948 360.279 165.008 364.15 167.128C368.022 169.156 371.017 171.922 373.137 175.424C375.257 178.927 376.686 182.799 377.424 187.039C378.253 191.279 378.668 195.565 378.668 199.897H329.584ZM364.841 192.431C364.841 187.546 364.058 183.582 362.491 180.54C361.016 177.406 359.034 175.102 356.545 173.627C354.057 172.152 351.43 171.415 348.664 171.415C345.807 171.415 342.949 172.244 340.092 173.903C337.326 175.47 334.976 177.821 333.04 180.955C331.197 184.089 330.183 187.914 329.998 192.431H364.841ZM383.391 215.107L390.58 213.862L394.314 227.551C396.71 228.565 398.83 229.348 400.674 229.901C402.517 230.454 404.776 230.731 407.449 230.731C411.597 230.731 414.961 229.809 417.542 227.965C420.216 226.122 421.598 223.126 421.69 218.978C421.783 216.305 420.953 214.093 419.202 212.341C417.45 210.59 415.146 209.115 412.288 207.917C409.523 206.626 406.573 205.336 403.439 204.045C400.305 202.755 397.309 201.28 394.452 199.621C391.594 197.962 389.244 195.888 387.4 193.399C385.649 190.818 384.773 187.592 384.773 183.72C384.773 180.125 385.603 177.084 387.262 174.595C389.013 172.106 391.318 170.078 394.175 168.511C397.033 166.944 400.167 165.838 403.578 165.193C406.988 164.455 410.353 164.086 413.671 164.086C417.635 164.086 421.229 164.501 424.456 165.331C427.774 166.16 430.125 167.267 431.507 168.649V185.933L424.317 187.177L420.584 173.074C419.017 172.613 417.588 172.29 416.298 172.106C415.008 171.829 413.256 171.691 411.044 171.691C407.541 171.691 404.407 172.382 401.642 173.765C398.969 175.148 397.632 177.775 397.632 181.646C397.632 184.412 398.508 186.716 400.259 188.56C402.103 190.403 404.407 192.016 407.172 193.399C410.03 194.689 413.026 195.98 416.16 197.27C419.294 198.469 422.243 199.897 425.009 201.557C427.866 203.216 430.171 205.29 431.922 207.779C433.766 210.175 434.687 213.217 434.687 216.904C434.687 222.343 433.351 226.629 430.678 229.763C428.097 232.897 424.732 235.109 420.584 236.4C416.436 237.69 412.012 238.335 407.311 238.335C402.794 238.335 398.416 237.875 394.175 236.953C389.935 236.031 386.34 234.925 383.391 233.634V215.107ZM444.788 143.9C447.185 139.844 450.411 136.664 454.467 134.359C458.523 136.479 461.611 139.567 463.731 143.623C461.426 147.587 458.2 150.767 454.052 153.163C449.996 151.043 446.908 147.955 444.788 143.9ZM461.795 228.38L472.165 230.316L470.782 236.953H437.184V232.805L449.351 228.657V175.148L438.152 173.074L437.46 167.405L461.795 164.086V228.38ZM505.306 214.692C503.831 214.692 502.356 214.646 500.881 214.554C499.406 214.369 497.932 214.093 496.457 213.724C494.89 214.922 493.553 216.305 492.447 217.872C491.341 219.439 490.788 221.098 490.788 222.85C490.788 224.417 491.525 225.753 493 226.859C494.475 227.873 496.733 228.426 499.775 228.519H525.769C531.669 228.703 535.863 230.224 538.351 233.081C540.932 235.847 542.223 239.165 542.223 243.036C542.223 247.461 540.978 251.425 538.49 254.927C536.093 258.43 532.867 261.38 528.811 263.776C524.847 266.173 520.423 267.97 515.537 269.169C510.652 270.459 505.767 271.105 500.881 271.105C492.585 271.105 485.902 269.584 480.833 266.542C475.855 263.592 473.366 258.983 473.366 252.715C473.366 249.212 474.426 246.124 476.546 243.451C478.759 240.87 481.708 238.382 485.395 235.985C481.708 233.404 479.865 229.901 479.865 225.477C479.865 223.08 480.694 220.591 482.354 218.01C484.105 215.429 486.548 213.217 489.682 211.374C485.626 209.53 482.308 206.903 479.727 203.492C477.146 200.082 475.855 195.611 475.855 190.081C475.855 183.812 477.192 178.743 479.865 174.871C482.538 171 486.087 168.188 490.511 166.437C495.028 164.593 499.913 163.672 505.168 163.672C508.762 163.672 512.127 164.133 515.261 165.054C518.487 165.976 521.299 167.405 523.695 169.341C524.986 169.341 526.921 169.295 529.502 169.202C532.083 169.018 534.71 168.834 537.384 168.649C538.951 168.557 540.518 168.465 542.085 168.373C543.744 168.188 545.449 168.05 547.2 167.958V177.498L529.917 177.084C530.839 178.927 531.484 180.955 531.853 183.167C532.222 185.287 532.406 187.592 532.406 190.081C532.406 196.164 531.115 201.004 528.534 204.598C525.954 208.193 522.589 210.774 518.441 212.341C514.293 213.908 509.915 214.692 505.306 214.692ZM505.582 207.087C510.191 207.087 513.51 205.474 515.537 202.248C517.565 199.022 518.579 194.966 518.579 190.081C518.579 184.919 517.427 180.448 515.123 176.669C512.818 172.889 509.177 171 504.2 171C499.406 171 495.765 172.751 493.277 176.254C490.788 179.757 489.543 184.227 489.543 189.666C489.543 194.643 490.788 198.791 493.277 202.11C495.858 205.428 499.959 207.087 505.582 207.087ZM502.679 240.271C497.978 240.271 493.968 239.672 490.65 238.474C487.516 242.161 485.949 245.664 485.949 248.982C485.949 254.328 487.884 258.015 491.756 260.043C495.719 262.071 500.743 263.085 506.827 263.085C511.159 263.085 515.307 262.394 519.271 261.011C523.234 259.628 526.461 257.739 528.949 255.342C531.438 253.038 532.682 250.549 532.682 247.876C532.682 245.203 531.761 243.267 529.917 242.069C528.074 240.87 524.479 240.271 519.132 240.271H502.679ZM617.669 228.38L628.73 230.731L627.347 236.953H594.578V232.805L605.225 228.657V192.016C605.225 187.407 604.718 183.905 603.704 181.508C602.782 179.019 601.307 177.36 599.279 176.53C597.344 175.609 594.901 175.148 591.951 175.148C588.264 175.148 584.577 175.793 580.89 177.084C577.295 178.374 574.576 180.079 572.732 182.199V228.38L583.24 230.316L581.858 236.953H548.397V232.805L560.426 228.657V175.701L548.95 173.489L548.259 167.405L572.732 164.086V175.424C575.866 171.645 579.692 168.788 584.208 166.852C588.725 164.824 592.873 163.81 596.652 163.81C603.289 163.81 608.405 165.838 612 169.894C615.595 173.949 617.484 180.402 617.669 189.251V228.38ZM640.007 199.897C640.007 205.981 641.067 211.235 643.187 215.66C645.4 219.992 648.349 223.357 652.036 225.753C655.816 228.058 660.01 229.21 664.619 229.21C671.163 229.21 677.938 226.952 684.944 222.435L687.986 227.689C683.469 231.192 678.814 233.819 674.021 235.57C669.228 237.321 664.526 238.197 659.918 238.197C653.834 238.197 648.211 236.768 643.049 233.911C637.979 230.961 633.877 226.675 630.743 221.052C627.702 215.429 626.181 208.654 626.181 200.727C626.181 194.643 627.149 189.297 629.084 184.688C631.02 180.079 633.601 176.254 636.827 173.212C640.053 170.078 643.648 167.774 647.612 166.299C651.576 164.732 655.539 163.948 659.503 163.948C665.679 163.948 670.702 165.008 674.574 167.128C678.445 169.156 681.441 171.922 683.561 175.424C685.681 178.927 687.11 182.799 687.847 187.039C688.677 191.279 689.092 195.565 689.092 199.897H640.007ZM675.265 192.431C675.265 187.546 674.482 183.582 672.915 180.54C671.44 177.406 669.458 175.102 666.969 173.627C664.48 172.152 661.853 171.415 659.088 171.415C656.231 171.415 653.373 172.244 650.516 173.903C647.75 175.47 645.4 177.821 643.464 180.955C641.62 184.089 640.606 187.914 640.422 192.431H675.265ZM743.256 184.55L736.067 185.794L732.333 175.286C731.965 175.194 731.504 175.148 730.951 175.148C730.398 175.148 729.937 175.148 729.568 175.148C726.618 175.148 723.53 175.793 720.304 177.084C717.078 178.374 714.543 180.079 712.7 182.199V228.38L725.42 230.316L724.037 236.953H688.365V232.805L700.394 228.657V175.701L688.918 173.489L688.227 167.405L712.7 164.086V175.424C715.834 172.106 719.152 169.387 722.655 167.267C726.25 165.147 730.075 164.086 734.131 164.086C737.173 164.086 740.215 164.732 743.256 166.022V184.55ZM769.146 158.279L766.104 137.263H778.133L775.229 158.279H769.146ZM776.75 159.247L795.969 149.983L799.426 161.459L778.824 165.193L776.75 159.247ZM765.136 165.746L744.258 162.151L747.991 150.675L767.072 159.938L765.136 165.746ZM778.548 167.128L793.342 182.476L783.525 189.389L773.57 170.862L778.548 167.128ZM771.358 171.415L761.403 190.219L751.724 183.029L766.38 167.82L771.358 171.415Z" fill="black"/>
</svg>
