<svg width="593" height="251" viewBox="0 0 593 251" fill="none" xmlns="http://www.w3.org/2000/svg">
<path d="M4.92869 89.1636V83.6584L47.9589 16.6976H16.0514L11.7821 32.876L6.16455 31.7525L6.2769 10.5183H61.1039V16.2482L18.2984 82.9843H53.0147L57.1716 67.1429L62.7891 68.2664V89.1636H4.92869ZM100.615 89.1636V80.0632C99.1172 81.8608 97.2073 83.5086 94.8854 85.0066C92.6384 86.5046 90.2416 87.7405 87.695 88.7142C85.2232 89.613 82.9013 90.0624 80.7292 90.0624C76.7595 90.0624 73.2766 88.7891 70.2806 86.2425C67.2846 83.6959 65.7866 80.0632 65.7866 75.3445C65.7866 71.5995 66.7229 68.566 68.5954 66.2441C70.5428 63.8473 73.9508 62.0122 78.8193 60.7389C82.4894 59.7652 86.0097 58.9788 89.3802 58.3796C92.8256 57.7055 96.5706 57.1437 100.615 56.6943V47.4816C100.615 43.2872 99.4917 40.3286 97.2447 38.6059C94.9977 36.8083 92.3013 35.9095 89.1555 35.9095C87.4328 35.9095 85.6726 36.0218 83.875 36.2465C82.0774 36.4712 80.3173 36.8832 78.5946 37.4824L75.4488 50.2903L69.6065 49.2792V34.6736C72.5276 33.4003 75.636 32.2768 78.9316 31.3031C82.3021 30.2545 85.8973 29.7302 89.7173 29.7302C93.6121 29.7302 97.1324 30.292 100.278 31.4155C103.499 32.4641 106.046 34.2991 107.918 36.9206C109.791 39.5421 110.727 43.0999 110.727 47.5939V82.0855L118.816 83.9955L117.693 89.1636H100.615ZM77.0217 74.4457C77.0217 77.966 77.8456 80.2879 79.4934 81.4114C81.2161 82.46 83.2009 82.9843 85.4479 82.9843C87.2455 82.9843 89.1555 82.5349 91.1778 81.6361C93.2001 80.7373 95.0352 79.6138 96.683 78.2656C98.4057 76.8425 99.7164 75.4943 100.615 74.221V61.413C98.2184 61.7126 95.8216 62.0497 93.4248 62.4242C91.028 62.7238 88.6312 63.2106 86.2344 63.8847C82.7141 64.8584 80.2798 66.2815 78.9316 68.154C77.6583 70.0266 77.0217 72.1238 77.0217 74.4457ZM156.221 37.8194C152.85 36.5461 149.929 35.9095 147.457 35.9095C143.712 35.9095 140.417 36.9581 137.571 39.0553C134.724 41.0776 132.477 43.8489 130.83 47.3692C129.257 50.8146 128.47 54.7469 128.47 59.166C128.47 63.1357 129.144 66.9556 130.493 70.6258C131.841 74.2959 133.938 77.2919 136.784 79.6138C139.63 81.8608 143.226 82.9843 147.57 82.9843C150.116 82.9843 152.888 82.4975 155.884 81.5237C158.955 80.55 161.651 79.2018 163.973 77.4791L166.445 81.7484C163.449 84.5947 160.153 86.7668 156.558 88.2648C152.963 89.6879 149.255 90.3994 145.435 90.3994C140.342 90.3994 135.661 89.2385 131.391 86.9166C127.122 84.5198 123.677 81.0369 121.055 76.468C118.509 71.8991 117.235 66.3939 117.235 59.9525C117.235 53.511 118.658 48.0433 121.505 43.5493C124.351 39.0553 128.058 35.6473 132.627 33.3254C137.196 30.9286 142.027 29.7302 147.12 29.7302C153.412 29.7302 159.367 31.4904 164.984 35.0107V49.9533L159.367 51.0768L156.221 37.8194ZM185.855 39.1676C188.402 36.0967 191.51 33.7748 195.18 32.2019C198.85 30.5541 202.221 29.7302 205.292 29.7302C210.684 29.7302 214.841 31.378 217.762 34.6736C220.758 37.9692 222.257 43.2123 222.257 50.4027L222.369 82.1978L231.357 84.1078L230.233 89.1636H203.606V85.7931L212.257 82.4226V52.6497C212.257 48.9047 211.845 46.0585 211.021 44.1111C210.272 42.0888 209.074 40.7406 207.426 40.0665C205.853 39.3174 203.868 38.9429 201.472 38.9429C198.476 38.9429 195.48 39.4672 192.484 40.5158C189.563 41.5645 187.353 42.9501 185.855 44.6728V82.1978L194.281 83.7708L193.158 89.1636H165.857V85.7931L175.743 82.4226V14.0012L166.418 12.2035L165.857 7.59719L185.855 4.90077V39.1676ZM258.708 13.5518C260.655 10.2561 263.277 7.67209 266.573 5.79958C269.868 7.52228 272.377 10.0314 274.1 13.3271C272.228 16.5478 269.606 19.1318 266.236 21.0792C262.94 19.3565 260.431 16.8474 258.708 13.5518ZM272.527 82.1978L280.953 83.7708L279.83 89.1636H252.529V85.7931L262.416 82.4226V38.9429L253.315 37.2577L252.753 32.6513L272.527 29.9549V82.1978ZM283.053 71.4122L288.895 70.4011L291.929 81.5237C293.876 82.3476 295.599 82.9843 297.097 83.4337C298.595 83.8831 300.43 84.1078 302.602 84.1078C305.972 84.1078 308.706 83.3588 310.804 81.8608C312.976 80.3628 314.099 77.9285 314.174 74.558C314.249 72.3859 313.575 70.5883 312.152 69.1652C310.729 67.7421 308.856 66.5437 306.534 65.57C304.287 64.5214 301.89 63.4728 299.344 62.4242C296.797 61.3756 294.363 60.1772 292.041 58.829C289.719 57.4808 287.809 55.7955 286.311 53.7732C284.888 51.676 284.176 49.0545 284.176 45.9087C284.176 42.9876 284.851 40.5158 286.199 38.4935C287.622 36.4712 289.494 34.8234 291.816 33.5501C294.138 32.2768 296.685 31.378 299.456 30.8537C302.227 30.2545 304.961 29.9549 307.658 29.9549C310.878 29.9549 313.8 30.292 316.421 30.9661C319.117 31.6402 321.027 32.539 322.151 33.6625V47.7063L316.309 48.7174L313.275 37.2577C312.002 36.8832 310.841 36.621 309.792 36.4712C308.744 36.2465 307.321 36.1342 305.523 36.1342C302.677 36.1342 300.13 36.6959 297.883 37.8194C295.711 38.9429 294.625 41.0776 294.625 44.2234C294.625 46.4704 295.337 48.3429 296.76 49.8409C298.258 51.3389 300.13 52.6497 302.377 53.7732C304.699 54.8218 307.133 55.8704 309.68 56.919C312.227 57.8927 314.623 59.0537 316.87 60.4019C319.192 61.7501 321.065 63.4353 322.488 65.4576C323.986 67.405 324.735 69.8768 324.735 72.8728C324.735 77.2919 323.649 80.7747 321.477 83.3214C319.38 85.868 316.646 87.6656 313.275 88.7142C309.905 89.7628 306.309 90.2871 302.49 90.2871C298.819 90.2871 295.262 89.9126 291.816 89.1636C288.371 88.4146 285.45 87.5158 283.053 86.4672V71.4122ZM384.41 89.1636V80.0632C382.912 81.8608 381.002 83.5086 378.68 85.0066C376.433 86.5046 374.036 87.7405 371.489 88.7142C369.018 89.613 366.696 90.0624 364.524 90.0624C360.554 90.0624 357.071 88.7891 354.075 86.2425C351.079 83.6959 349.581 80.0632 349.581 75.3445C349.581 71.5995 350.517 68.566 352.39 66.2441C354.337 63.8473 357.745 62.0122 362.614 60.7389C366.284 59.7652 369.804 58.9788 373.175 58.3796C376.62 57.7055 380.365 57.1437 384.41 56.6943V47.4816C384.41 43.2872 383.286 40.3286 381.039 38.6059C378.792 36.8083 376.096 35.9095 372.95 35.9095C371.227 35.9095 369.467 36.0218 367.669 36.2465C365.872 36.4712 364.112 36.8832 362.389 37.4824L359.243 50.2903L353.401 49.2792V34.6736C356.322 33.4003 359.43 32.2768 362.726 31.3031C366.097 30.2545 369.692 29.7302 373.512 29.7302C377.407 29.7302 380.927 30.292 384.073 31.4155C387.293 32.4641 389.84 34.2991 391.712 36.9206C393.585 39.5421 394.521 43.0999 394.521 47.5939V82.0855L402.61 83.9955L401.487 89.1636H384.41ZM360.816 74.4457C360.816 77.966 361.64 80.2879 363.288 81.4114C365.011 82.46 366.995 82.9843 369.242 82.9843C371.04 82.9843 372.95 82.5349 374.972 81.6361C376.995 80.7373 378.83 79.6138 380.477 78.2656C382.2 76.8425 383.511 75.4943 384.41 74.221V61.413C382.013 61.7126 379.616 62.0497 377.219 62.4242C374.822 62.7238 372.426 63.2106 370.029 63.8847C366.509 64.8584 364.074 66.2815 362.726 68.154C361.453 70.0266 360.816 72.1238 360.816 74.4457Z" fill="black"/>
<path d="M94.4557 168.047C94.4557 176.896 92.5661 184.962 88.7868 192.244C85.0997 199.526 79.6612 205.333 72.4714 209.665C65.2815 213.997 56.5247 216.164 46.2008 216.164H5.41227V211.324L18.5476 207.315V128.226L5.41227 125.599L6.79494 119.377H46.2008C54.2202 119.377 61.2257 120.668 67.2173 123.249C73.301 125.737 78.3246 129.24 82.2883 133.757C86.3441 138.274 89.3859 143.482 91.4138 149.381C93.4417 155.188 94.4557 161.41 94.4557 168.047ZM32.3742 126.982V208.559H43.8503C55.2803 208.559 64.1293 204.918 70.3974 197.636C76.7576 190.354 79.9377 180.491 79.9377 168.047C79.9377 159.751 78.6934 152.515 76.2046 146.339C73.7158 140.163 69.7982 135.416 64.4519 132.098C59.1978 128.687 52.3306 126.982 43.8503 126.982H32.3742ZM113.206 179.108C113.206 185.192 114.266 190.446 116.386 194.871C118.598 199.203 121.548 202.567 125.235 204.964C129.014 207.268 133.208 208.421 137.817 208.421C144.362 208.421 151.137 206.162 158.142 201.646L161.184 206.9C156.668 210.402 152.013 213.03 147.219 214.781C142.426 216.532 137.725 217.408 133.116 217.408C127.033 217.408 121.41 215.979 116.248 213.122C111.178 210.172 107.076 205.886 103.942 200.263C100.9 194.64 99.3793 187.865 99.3793 179.938C99.3793 173.854 100.347 168.508 102.283 163.899C104.219 159.29 106.8 155.465 110.026 152.423C113.252 149.289 116.847 146.984 120.811 145.51C124.774 143.943 128.738 143.159 132.701 143.159C138.877 143.159 143.901 144.219 147.772 146.339C151.644 148.367 154.64 151.132 156.76 154.635C158.88 158.138 160.309 162.009 161.046 166.249C161.876 170.49 162.29 174.776 162.29 179.108H113.206ZM148.464 171.642C148.464 166.756 147.68 162.793 146.113 159.751C144.638 156.617 142.657 154.313 140.168 152.838C137.679 151.363 135.052 150.625 132.287 150.625C129.429 150.625 126.572 151.455 123.714 153.114C120.949 154.681 118.598 157.032 116.663 160.166C114.819 163.3 113.805 167.125 113.621 171.642H148.464ZM167.013 194.318L174.203 193.073L177.936 206.761C180.333 207.775 182.453 208.559 184.296 209.112C186.14 209.665 188.398 209.942 191.071 209.942C195.219 209.942 198.584 209.02 201.165 207.176C203.838 205.333 205.221 202.337 205.313 198.189C205.405 195.516 204.575 193.304 202.824 191.552C201.073 189.801 198.768 188.326 195.911 187.128C193.145 185.837 190.196 184.547 187.062 183.256C183.928 181.966 180.932 180.491 178.074 178.832C175.217 177.173 172.866 175.099 171.023 172.61C169.271 170.029 168.396 166.803 168.396 162.931C168.396 159.336 169.225 156.294 170.884 153.806C172.636 151.317 174.94 149.289 177.798 147.722C180.655 146.155 183.789 145.049 187.2 144.403C190.61 143.666 193.975 143.297 197.293 143.297C201.257 143.297 204.852 143.712 208.078 144.542C211.396 145.371 213.747 146.477 215.13 147.86V165.143L207.94 166.388L204.207 152.285C202.64 151.824 201.211 151.501 199.92 151.317C198.63 151.04 196.879 150.902 194.666 150.902C191.164 150.902 188.029 151.593 185.264 152.976C182.591 154.359 181.254 156.986 181.254 160.857C181.254 163.622 182.13 165.927 183.881 167.77C185.725 169.614 188.029 171.227 190.795 172.61C193.652 173.9 196.648 175.191 199.782 176.481C202.916 177.679 205.866 179.108 208.631 180.767C211.489 182.427 213.793 184.501 215.544 186.989C217.388 189.386 218.31 192.428 218.31 196.115C218.31 201.553 216.973 205.84 214.3 208.974C211.719 212.108 208.355 214.32 204.207 215.611C200.059 216.901 195.634 217.546 190.933 217.546C186.416 217.546 182.038 217.085 177.798 216.164C173.558 215.242 169.963 214.136 167.013 212.845V194.318ZM228.411 123.11C230.807 119.055 234.034 115.875 238.089 113.57C242.145 115.69 245.233 118.778 247.353 122.834C245.049 126.798 241.823 129.978 237.675 132.374C233.619 130.254 230.531 127.166 228.411 123.11ZM245.418 207.591L255.787 209.527L254.405 216.164H220.806V212.016L232.974 207.868V154.359L221.774 152.285L221.083 146.616L245.418 143.297V207.591ZM288.928 193.903C287.453 193.903 285.978 193.857 284.504 193.764C283.029 193.58 281.554 193.304 280.079 192.935C278.512 194.133 277.176 195.516 276.069 197.083C274.963 198.65 274.41 200.309 274.41 202.06C274.41 203.627 275.148 204.964 276.622 206.07C278.097 207.084 280.356 207.637 283.398 207.729H309.392C315.291 207.914 319.485 209.435 321.974 212.292C324.555 215.057 325.845 218.376 325.845 222.247C325.845 226.672 324.601 230.635 322.112 234.138C319.715 237.641 316.489 240.591 312.433 242.987C308.47 245.384 304.045 247.181 299.16 248.38C294.274 249.67 289.389 250.315 284.504 250.315C276.208 250.315 269.525 248.794 264.455 245.753C259.477 242.803 256.989 238.194 256.989 231.926C256.989 228.423 258.049 225.335 260.169 222.662C262.381 220.081 265.331 217.592 269.018 215.196C265.331 212.615 263.487 209.112 263.487 204.687C263.487 202.291 264.317 199.802 265.976 197.221C267.727 194.64 270.17 192.428 273.304 190.584C269.248 188.741 265.93 186.114 263.349 182.703C260.768 179.293 259.477 174.822 259.477 169.291C259.477 163.023 260.814 157.954 263.487 154.082C266.16 150.211 269.709 147.399 274.134 145.648C278.65 143.804 283.536 142.882 288.79 142.882C292.385 142.882 295.749 143.343 298.883 144.265C302.11 145.187 304.921 146.616 307.318 148.551C308.608 148.551 310.544 148.505 313.125 148.413C315.706 148.229 318.333 148.044 321.006 147.86C322.573 147.768 324.14 147.676 325.707 147.584C327.366 147.399 329.071 147.261 330.823 147.169V156.709L313.54 156.294C314.461 158.138 315.107 160.166 315.475 162.378C315.844 164.498 316.028 166.803 316.028 169.291C316.028 175.375 314.738 180.214 312.157 183.809C309.576 187.404 306.211 189.985 302.063 191.552C297.915 193.119 293.537 193.903 288.928 193.903ZM289.205 186.298C293.814 186.298 297.132 184.685 299.16 181.459C301.188 178.233 302.202 174.177 302.202 169.291C302.202 164.129 301.049 159.659 298.745 155.88C296.441 152.1 292.8 150.211 287.822 150.211C283.029 150.211 279.388 151.962 276.899 155.465C274.41 158.967 273.166 163.438 273.166 168.877C273.166 173.854 274.41 178.002 276.899 181.32C279.48 184.639 283.582 186.298 289.205 186.298ZM286.301 219.482C281.6 219.482 277.59 218.883 274.272 217.685C271.138 221.372 269.571 224.874 269.571 228.193C269.571 233.539 271.507 237.226 275.378 239.254C279.342 241.282 284.365 242.296 290.449 242.296C294.781 242.296 298.929 241.605 302.893 240.222C306.857 238.839 310.083 236.95 312.572 234.553C315.06 232.249 316.305 229.76 316.305 227.087C316.305 224.413 315.383 222.478 313.54 221.279C311.696 220.081 308.101 219.482 302.755 219.482H286.301ZM401.291 207.591L412.352 209.942L410.97 216.164H378.201V212.016L388.847 207.868V171.227C388.847 166.618 388.34 163.115 387.326 160.719C386.404 158.23 384.93 156.571 382.902 155.741C380.966 154.819 378.523 154.359 375.574 154.359C371.886 154.359 368.199 155.004 364.512 156.294C360.917 157.585 358.198 159.29 356.355 161.41V207.591L366.863 209.527L365.48 216.164H332.02V212.016L344.049 207.868V154.912L332.573 152.699L331.881 146.616L356.355 143.297V154.635C359.489 150.856 363.314 147.998 367.831 146.063C372.347 144.035 376.495 143.021 380.275 143.021C386.911 143.021 392.027 145.049 395.622 149.104C399.217 153.16 401.107 159.613 401.291 168.462V207.591ZM423.63 179.108C423.63 185.192 424.69 190.446 426.81 194.871C429.022 199.203 431.972 202.567 435.659 204.964C439.438 207.268 443.632 208.421 448.241 208.421C454.786 208.421 461.561 206.162 468.566 201.646L471.608 206.9C467.091 210.402 462.436 213.03 457.643 214.781C452.85 216.532 448.149 217.408 443.54 217.408C437.456 217.408 431.833 215.979 426.672 213.122C421.602 210.172 417.5 205.886 414.366 200.263C411.324 194.64 409.803 187.865 409.803 179.938C409.803 173.854 410.771 168.508 412.707 163.899C414.642 159.29 417.223 155.465 420.45 152.423C423.676 149.289 427.271 146.984 431.234 145.51C435.198 143.943 439.162 143.159 443.125 143.159C449.301 143.159 454.325 144.219 458.196 146.339C462.068 148.367 465.063 151.132 467.184 154.635C469.304 158.138 470.732 162.009 471.47 166.249C472.299 170.49 472.714 174.776 472.714 179.108H423.63ZM458.888 171.642C458.888 166.756 458.104 162.793 456.537 159.751C455.062 156.617 453.08 154.313 450.592 152.838C448.103 151.363 445.476 150.625 442.71 150.625C439.853 150.625 436.995 151.455 434.138 153.114C431.373 154.681 429.022 157.032 427.086 160.166C425.243 163.3 424.229 167.125 424.044 171.642H458.888ZM526.879 163.761L519.689 165.005L515.956 154.497C515.587 154.405 515.126 154.359 514.573 154.359C514.02 154.359 513.559 154.359 513.19 154.359C510.241 154.359 507.153 155.004 503.927 156.294C500.7 157.585 498.166 159.29 496.322 161.41V207.591L509.042 209.527L507.66 216.164H471.987V212.016L484.016 207.868V154.912L472.54 152.699L471.849 146.616L496.322 143.297V154.635C499.456 151.317 502.774 148.598 506.277 146.477C509.872 144.357 513.697 143.297 517.753 143.297C520.795 143.297 523.837 143.943 526.879 145.233V163.761ZM552.768 137.49L549.726 116.474H561.755L558.852 137.49H552.768ZM560.373 138.458L579.592 129.194L583.048 140.67L562.447 144.403L560.373 138.458ZM548.758 144.956L527.88 141.362L531.613 129.885L550.694 139.149L548.758 144.956ZM562.17 146.339L576.965 161.687L567.148 168.6L557.193 150.072L562.17 146.339ZM554.98 150.625L545.025 169.43L535.347 162.24L550.003 147.03L554.98 150.625Z" fill="black"/>
</svg>
