<?xml version="1.0" encoding="utf-8"?>
<svg xmlns="http://www.w3.org/2000/svg" width="302" height="40" viewBox="0 0 302 40"><g><g><path fill="#a57ef7" d="M1.443 40A1.402 1.402 0 0 1 .04 38.598V26.585c0-1.51.906-2.85 2.308-3.412l8.134-3.264a1.403 1.403 0 0 1 1.044 2.603l-8.134 3.264a.868.868 0 0 0-.547.809v12.013c0 .774-.628 1.402-1.403 1.402z"/></g><g><path fill="#8574e9" d="M11.005 40a1.402 1.402 0 0 1-1.402-1.402V16.986c0-1.535.967-2.922 2.408-3.451l8.942-3.289a1.401 1.401 0 1 1 .969 2.632l-8.943 3.289a.876.876 0 0 0-.571.819v21.612c0 .774-.628 1.402-1.403 1.402z"/></g><g><path fill="#575bbf" d="M38.184 5.406L32.83.38 32.82.37a1.433 1.433 0 0 0-.144-.116l-.027-.017a1.37 1.37 0 0 0-.133-.079l-.038-.02a1.504 1.504 0 0 0-.161-.065l-.038-.012a1.47 1.47 0 0 0-.142-.035l-.041-.008A1.296 1.296 0 0 0 31.92 0h-.033a1.282 1.282 0 0 0-.196.011 1.36 1.36 0 0 0-.176.033l-.03.01-.1.031-8.942 3.288a3.692 3.692 0 0 0-2.408 3.451v31.773a1.403 1.403 0 1 0 2.805 0V6.824c0-.364.23-.693.57-.818l7.057-2.595v35.186c0 .775.628 1.403 1.403 1.403h7.5c.776 0 1.404-.628 1.404-1.403V11.39a8.236 8.236 0 0 0-2.59-5.983z"/></g><g><path fill="#fff" d="M54.712 30.97l2.558-3.13c1.595 1.805 3.641 2.677 5.326 2.677 2.047 0 3.04-.932 3.04-2.256 0-1.565-1.114-2.137-3.702-3.04-3.25-1.113-6.47-2.587-6.47-6.65 0-3.43 3.04-6.079 6.861-6.109 2.65 0 5.086.963 7.222 2.71L67.08 18.36c-1.775-1.444-3.34-2.106-4.664-2.106-1.475 0-2.558.782-2.588 2.136 0 1.324 1.143 1.866 3.611 2.83 3.701 1.443 6.65 2.406 6.65 6.53 0 4.694-4.122 6.62-7.583 6.62-2.738 0-5.537-1.084-7.794-3.4z"/></g><g><path fill="#fff" d="M73.22 19.383h3.941v1.926h.03c1.174-1.414 2.768-2.136 4.393-2.136 1.926 0 3.461.722 4.334 2.316h.06c1.203-1.534 3.04-2.316 5.146-2.316 3.16 0 5.176 1.896 5.176 6.41v8.515h-3.943v-7.583c0-2.347-.722-3.82-2.557-3.82-1.656 0-3.01 1.413-3.01 4.061v7.342h-3.942v-7.583c0-2.347-.782-3.82-2.587-3.82-1.776 0-3.1 1.413-3.1 4.061v7.342H73.22z"/></g><g><path fill="#fff" d="M106.08 19.172c1.715 0 3.28.663 4.333 1.926l.06-.03v-1.685h3.943v14.715h-3.762v-1.745l-.06-.03c-1.023 1.324-2.498 2.046-4.424 2.046-4.032 0-7.012-3.039-7.012-7.583 0-4.454 2.98-7.614 6.922-7.614zm.843 3.521c-2.137 0-3.762 1.595-3.762 4.123 0 2.347 1.535 4.002 3.762 4.002 2.016 0 3.73-1.595 3.73-4.002 0-2.377-1.624-4.123-3.73-4.123z"/></g><g><path fill="#fff" d="M118.177 19.383h3.942v2.137h.06c1.114-1.505 2.708-2.347 4.424-2.347h.3v4.303c-.42-.03-.812-.03-1.053-.03-2.437 0-3.731 1.625-3.731 3.852v6.8h-3.942z"/></g><g><path fill="#fff" d="M129.732 29.464V14.6l3.942-.422v5.206h3.973v3.28h-3.973v6.23c0 1.293.33 1.895 1.264 1.895.48 0 1.204-.18 1.866-.512l.993 3.16c-.933.512-1.896.933-3.882.933-2.528 0-4.183-1.594-4.183-4.905z"/></g><g><path fill="#fff" d="M149.107 12.704h4.273v9.238h8.727v-9.238h4.243V34.07h-4.243v-8.365h-8.727v8.365h-4.273z"/></g><g><path fill="#fff" d="M177.634 19.144c4.574 0 7.794 3.069 7.794 7.583 0 4.484-3.22 7.613-7.794 7.613-4.694 0-7.824-3.22-7.824-7.613 0-4.393 3.13-7.583 7.824-7.583zm0 3.52c-2.287 0-3.82 1.746-3.82 4.063 0 2.288 1.563 4.062 3.82 4.062 2.107 0 3.792-1.655 3.792-4.062s-1.625-4.062-3.792-4.062z"/></g><g><path fill="#fff" d="M188.889 29.435v-6.8h-1.745v-3.28h1.745v-4.786l3.942-.42v5.205h3.972v3.28h-3.972v6.23c0 1.293.33 1.895 1.264 1.895.48 0 1.204-.18 1.866-.512l.992 3.16c-.932.512-1.895.933-3.881.933-2.528 0-4.183-1.595-4.183-4.905z"/></g><g><path fill="#fff" d="M202.19 27.991c.48 1.775 1.896 2.828 3.882 2.828 1.655 0 2.798-.692 3.58-1.655l2.559 2.377c-1.234 1.595-3.13 2.8-6.41 2.8-4.514 0-7.704-3.04-7.704-7.644 0-4.484 3.1-7.554 7.463-7.554 4.153 0 7.042 3.13 7.042 7.433 0 .482-.06 1.173-.09 1.415zm6.5-2.829c-.391-1.565-1.445-2.588-3.16-2.588-1.595 0-2.86.903-3.31 2.588z"/></g><g><path fill="#fff" d="M215.852 11.921h3.942v22.148h-3.942z"/></g><g><path fill="#fff" d="M231.98 12.704h8.095c5.146 0 7.433 3.01 7.433 7.101 0 3.25-1.505 5.477-4.454 6.44l5.356 7.824h-5.025l-4.784-7.313h-2.438v7.313h-4.183zm7.252 10.321c2.588 0 3.913-1.324 3.913-3.28 0-1.986-1.294-3.28-3.732-3.28h-3.25v6.56z"/></g><g><path fill="#fff" d="M256.506 19.143c1.716 0 3.28.662 4.333 1.926l.06-.03v-1.685h3.943V34.07h-3.762v-1.745l-.06-.03c-1.023 1.324-2.498 2.046-4.423 2.046-4.033 0-7.012-3.039-7.012-7.583 0-4.454 2.979-7.614 6.92-7.614zm.843 3.521c-2.137 0-3.762 1.595-3.762 4.123 0 2.347 1.535 4.002 3.762 4.002 2.016 0 3.73-1.595 3.73-4.002 0-2.377-1.624-4.123-3.73-4.123z"/></g><g><path fill="#fff" d="M268.214 29.435V14.57l3.942-.42v5.205h3.973v3.28h-3.973v6.23c0 1.293.33 1.895 1.264 1.895.482 0 1.204-.18 1.866-.512l.993 3.16c-.933.512-1.896.933-3.882.933-2.528 0-4.183-1.595-4.183-4.905z"/></g><g><path fill="#fff" d="M281.515 27.991c.482 1.775 1.896 2.828 3.882 2.828 1.655 0 2.798-.692 3.58-1.655l2.559 2.377c-1.234 1.595-3.13 2.8-6.41 2.8-4.514 0-7.704-3.04-7.704-7.644 0-4.484 3.1-7.554 7.463-7.554 4.153 0 7.042 3.13 7.042 7.433 0 .482-.06 1.173-.09 1.415zm6.5-2.829c-.391-1.565-1.444-2.588-3.16-2.588-1.594 0-2.858.903-3.31 2.588z"/></g><g><path fill="#fff" d="M294.892 20.022v3.337h.795v-3.337h1.31v-.668h-3.415v.668zm2.784-.668v4.005h.735v-3.232l1.118 3.232h.64l1.109-3.232v3.232h.735v-4.005h-1.14l-1.03 2.867-1.022-2.867z"/></g></g></svg>