<svg width="155" height="21" viewBox="0 0 155 21" fill="none" xmlns="http://www.w3.org/2000/svg">
<path d="M12.5562 15.0963H4.68436L2.91643 20H0.361328L7.53627 1.21094H9.70424L16.8921 20H14.3499L12.5562 15.0963ZM5.43283 13.0573H11.8206L8.62026 4.26932L5.43283 13.0573ZM22.0539 2.65625V6.03725H24.6606V7.8826H22.0539V16.5416C22.0539 17.1008 22.1701 17.5223 22.4023 17.8062C22.6346 18.0815 23.0304 18.2192 23.5896 18.2192C23.8649 18.2192 24.2434 18.1676 24.7252 18.0643V20C24.0971 20.1721 23.4863 20.2581 22.8927 20.2581C21.8259 20.2581 21.0216 19.9355 20.4796 19.2902C19.9376 18.645 19.6666 17.7288 19.6666 16.5416V7.8826H17.1244V6.03725H19.6666V2.65625H22.0539ZM26.5705 12.8896C26.5705 11.5217 26.8372 10.2915 27.3706 9.19887C27.9126 8.10628 28.6611 7.26318 29.616 6.66957C30.5795 6.07596 31.6764 5.77916 32.9067 5.77916C34.8079 5.77916 36.3436 6.43729 37.5136 7.75356C38.6922 9.06982 39.2815 10.8205 39.2815 13.0057V13.1735C39.2815 14.5328 39.0191 15.7544 38.4943 16.8384C37.9782 17.9138 37.234 18.7526 36.2619 19.3548C35.2983 19.957 34.1885 20.2581 32.9325 20.2581C31.0398 20.2581 29.5042 19.6 28.3255 18.2837C27.1555 16.9674 26.5705 15.2253 26.5705 13.0573V12.8896ZM28.9708 13.1735C28.9708 14.722 29.3278 15.9652 30.0419 16.9029C30.7645 17.8406 31.728 18.3095 32.9325 18.3095C34.1455 18.3095 35.109 17.8363 35.8231 16.89C36.5372 15.9351 36.8942 14.6016 36.8942 12.8896C36.8942 11.3582 36.5286 10.1194 35.7973 9.17306C35.0746 8.21812 34.1111 7.74065 32.9067 7.74065C31.728 7.74065 30.7774 8.20952 30.0548 9.14725C29.3321 10.085 28.9708 11.4271 28.9708 13.1735ZM44.5208 6.03725L44.5853 7.5858C45.6091 6.38137 46.9899 5.77916 48.7277 5.77916C50.6806 5.77916 52.0097 6.52762 52.7152 8.02455C53.1798 7.35352 53.782 6.81152 54.5218 6.39858C55.2703 5.98563 56.1521 5.77916 57.1673 5.77916C60.23 5.77916 61.7871 7.40083 61.8387 10.6442V20H59.4514V10.7861C59.4514 9.78818 59.2234 9.04402 58.7674 8.55364C58.3115 8.05466 57.5458 7.80518 56.4704 7.80518C55.5843 7.80518 54.8487 8.07187 54.2637 8.60526C53.6787 9.13005 53.3389 9.8398 53.2443 10.7345V20H50.844V10.8507C50.844 8.82034 49.8504 7.80518 47.8631 7.80518C46.2973 7.80518 45.2262 8.47191 44.6498 9.80539V20H42.2625V6.03725H44.5208ZM68.0458 20H65.6585V6.03725H68.0458V20ZM65.4649 2.33364C65.4649 1.9465 65.581 1.61958 65.8133 1.35289C66.0542 1.08619 66.4069 0.952847 66.8715 0.952847C67.3361 0.952847 67.6888 1.08619 67.9297 1.35289C68.1706 1.61958 68.291 1.9465 68.291 2.33364C68.291 2.72077 68.1706 3.04339 67.9297 3.30148C67.6888 3.55957 67.3361 3.68862 66.8715 3.68862C66.4069 3.68862 66.0542 3.55957 65.8133 3.30148C65.581 3.04339 65.4649 2.72077 65.4649 2.33364ZM77.4791 18.3095C78.3308 18.3095 79.0749 18.0514 79.7116 17.5352C80.3482 17.019 80.7009 16.3738 80.7697 15.5995H83.028C82.985 16.3996 82.7097 17.161 82.2021 17.8836C81.6946 18.6063 81.0149 19.1827 80.1632 19.6129C79.3201 20.043 78.4254 20.2581 77.4791 20.2581C75.5778 20.2581 74.0637 19.6258 72.9367 18.3611C71.8183 17.0879 71.2591 15.3501 71.2591 13.1477V12.7476C71.2591 11.3883 71.5086 10.1796 72.0075 9.12144C72.5065 8.06327 73.2206 7.24168 74.1497 6.65667C75.0874 6.07166 76.1929 5.77916 77.4662 5.77916C79.0319 5.77916 80.331 6.24802 81.3633 7.18576C82.4043 8.12349 82.9592 9.34082 83.028 10.8378H80.7697C80.7009 9.93443 80.3568 9.19457 79.7374 8.61816C79.1266 8.03316 78.3695 7.74065 77.4662 7.74065C76.2531 7.74065 75.3111 8.17941 74.6401 9.05692C73.9776 9.92583 73.6464 11.1862 73.6464 12.838V13.2896C73.6464 14.8984 73.9776 16.1372 74.6401 17.0061C75.3025 17.875 76.2488 18.3095 77.4791 18.3095Z" fill="white"/>
<path d="M88.577 17.974H97.4812V20H86.0864V1.21094H88.577V17.974ZM99.3007 12.8896C99.3007 11.5217 99.5674 10.2915 100.101 9.19887C100.643 8.10628 101.391 7.26318 102.346 6.66957C103.31 6.07596 104.407 5.77916 105.637 5.77916C107.538 5.77916 109.074 6.43729 110.244 7.75356C111.422 9.06982 112.012 10.8205 112.012 13.0057V13.1735C112.012 14.5328 111.749 15.7544 111.225 16.8384C110.708 17.9138 109.964 18.7526 108.992 19.3548C108.028 19.957 106.919 20.2581 105.663 20.2581C103.77 20.2581 102.234 19.6 101.056 18.2837C99.8857 16.9674 99.3007 15.2253 99.3007 13.0573V12.8896ZM101.701 13.1735C101.701 14.722 102.058 15.9652 102.772 16.9029C103.495 17.8406 104.458 18.3095 105.663 18.3095C106.876 18.3095 107.839 17.8363 108.553 16.89C109.267 15.9351 109.624 14.6016 109.624 12.8896C109.624 11.3582 109.259 10.1194 108.527 9.17306C107.805 8.21812 106.841 7.74065 105.637 7.74065C104.458 7.74065 103.508 8.20952 102.785 9.14725C102.062 10.085 101.701 11.4271 101.701 13.1735ZM123.626 20C123.488 19.7247 123.376 19.2343 123.29 18.5289C122.181 19.6817 120.856 20.2581 119.316 20.2581C117.939 20.2581 116.808 19.871 115.922 19.0967C115.044 18.3138 114.606 17.3245 114.606 16.1286C114.606 14.6747 115.156 13.5477 116.257 12.7476C117.367 11.9389 118.924 11.5346 120.929 11.5346H123.252V10.4377C123.252 9.60321 123.002 8.94078 122.503 8.45041C122.004 7.95143 121.269 7.70194 120.296 7.70194C119.445 7.70194 118.731 7.91702 118.154 8.34717C117.578 8.77732 117.29 9.29781 117.29 9.90862H114.889C114.889 9.21178 115.135 8.54074 115.625 7.89551C116.124 7.24168 116.795 6.72549 117.638 6.34696C118.49 5.96843 119.423 5.77916 120.438 5.77916C122.047 5.77916 123.308 6.1835 124.219 6.99219C125.131 7.79227 125.605 8.89776 125.639 10.3087V16.7351C125.639 18.017 125.802 19.0365 126.129 19.7935V20H123.626ZM119.664 18.1805C120.413 18.1805 121.122 17.9869 121.793 17.5997C122.464 17.2126 122.95 16.7093 123.252 16.0899V13.2251H121.38C118.455 13.2251 116.993 14.0811 116.993 15.7931C116.993 16.5416 117.242 17.1266 117.741 17.5481C118.24 17.9697 118.881 18.1805 119.664 18.1805ZM131.64 6.03725L131.717 7.79227C132.784 6.4502 134.177 5.77916 135.898 5.77916C138.849 5.77916 140.337 7.44385 140.363 10.7732V20H137.976V10.7603C137.967 9.75377 137.735 9.0096 137.279 8.52783C136.832 8.04606 136.13 7.80518 135.175 7.80518C134.401 7.80518 133.722 8.01165 133.137 8.4246C132.551 8.83754 132.096 9.37953 131.769 10.0506V20H129.381V6.03725H131.64ZM152.093 16.2964C152.093 15.6512 151.848 15.1522 151.358 14.7995C150.876 14.4381 150.029 14.1284 148.816 13.8703C147.611 13.6122 146.652 13.3025 145.938 12.9412C145.232 12.5799 144.708 12.1497 144.363 11.6507C144.028 11.1518 143.86 10.5582 143.86 9.86991C143.86 8.7257 144.342 7.75786 145.306 6.96638C146.278 6.1749 147.516 5.77916 149.022 5.77916C150.605 5.77916 151.887 6.1878 152.868 7.00509C153.857 7.82238 154.352 8.86765 154.352 10.1409H151.951C151.951 9.48707 151.672 8.92357 151.113 8.45041C150.562 7.97724 149.865 7.74065 149.022 7.74065C148.153 7.74065 147.473 7.92992 146.983 8.30845C146.493 8.68699 146.248 9.18166 146.248 9.79248C146.248 10.3689 146.476 10.8033 146.931 11.0958C147.387 11.3883 148.209 11.6679 149.396 11.9346C150.592 12.2013 151.56 12.5196 152.3 12.8896C153.04 13.2595 153.586 13.7069 153.939 14.2317C154.3 14.7478 154.481 15.3802 154.481 16.1286C154.481 17.3761 153.982 18.3783 152.984 19.1354C151.986 19.8839 150.691 20.2581 149.099 20.2581C147.981 20.2581 146.992 20.0602 146.131 19.6645C145.271 19.2687 144.596 18.7181 144.105 18.0127C143.624 17.2986 143.383 16.5287 143.383 15.7028H145.77C145.813 16.5029 146.131 17.1395 146.725 17.6127C147.327 18.0772 148.119 18.3095 149.099 18.3095C150.003 18.3095 150.725 18.1288 151.267 17.7675C151.818 17.3976 152.093 16.9072 152.093 16.2964Z" fill="#AF64D0"/>
</svg>
