<?xml version="1.0" encoding="UTF-8"?>
<!-- Generator: Adobe Illustrator 23.0.1, SVG Export Plug-In . SVG Version: 6.00 Build 0)  -->
<svg version="1.1" xmlns="http://www.w3.org/2000/svg" xmlns:xlink="http://www.w3.org/1999/xlink" x="0px" y="0px" viewBox="0 0 900 900" style="enable-background:new 0 0 900 900;" xml:space="preserve">
<style type="text/css">
	.st0{display:none;}
	.st1{display:inline;fill:none;}
	.st2{display:inline;fill:#FFFFFF;stroke:#000000;stroke-width:20;stroke-miterlimit:10;}
	.st3{display:inline;fill:#FFFFFF;stroke:#000000;stroke-miterlimit:10;}
	.st4{display:inline;}
	.st5{fill:#FFFFFF;stroke:#000000;stroke-width:12;stroke-miterlimit:10;}
	.st6{display:inline;fill:#FFFFFF;stroke:#000000;stroke-width:12;stroke-miterlimit:10;}
	.st7{display:inline;fill:none;stroke:#000000;stroke-width:12;stroke-miterlimit:10;}
	.st8{display:inline;fill:none;stroke:#000000;stroke-width:20;stroke-miterlimit:10;}
	.st9{fill:#FFFFFF;stroke:#000000;stroke-width:20;stroke-miterlimit:10;}
	.st10{fill:none;stroke:#000000;stroke-width:20;stroke-miterlimit:10;}
	.st11{fill:#FFFFFF;stroke:#000000;stroke-width:30;stroke-miterlimit:10;}
	.st12{fill:none;stroke:#000000;stroke-width:30;stroke-miterlimit:10;}
	.st13{fill:#FFFFFF;stroke:#000000;stroke-width:30;stroke-linecap:round;stroke-miterlimit:10;}
	.st14{fill:none;stroke:#000000;stroke-width:30;stroke-linecap:round;stroke-miterlimit:10;}
	.st15{display:inline;fill:#FFFFFF;stroke:#000000;stroke-width:30;stroke-linecap:round;stroke-miterlimit:10;}
	.st16{display:inline;fill:none;stroke:#000000;stroke-width:30;stroke-linecap:round;stroke-miterlimit:10;}
	.st17{fill:none;}
	.st18{fill:#FFFFFF;}
	.st19{display:inline;fill:none;stroke:#000000;stroke-width:30;stroke-linecap:round;stroke-linejoin:round;stroke-miterlimit:10;}
	.st20{display:inline;fill:none;stroke:#000000;stroke-width:4;stroke-miterlimit:10;}
	.st21{fill:none;stroke:#000000;stroke-width:4;stroke-miterlimit:10;}
	.st22{fill:#2B56DD;}
	.st23{stroke:#000000;stroke-width:1.66;stroke-miterlimit:10;}
	.st24{fill:#335AD4;}
</style>
<g id="Layer_1" class="st0">
</g>
<g id="exports">
	<path class="st18" d="M103.78,692.16c-2.71,1.47-5.83,2.2-9.35,2.2c-3.08,0-5.96-0.62-8.63-1.87c-2.68-1.25-5-2.99-6.98-5.22   c-1.98-2.24-3.54-4.88-4.68-7.92c-1.14-3.04-1.71-6.4-1.71-10.07c0-3.59,0.57-6.93,1.71-10.01c1.14-3.08,2.71-5.74,4.73-7.97   c2.02-2.24,4.4-3.98,7.15-5.23c2.75-1.25,5.74-1.87,8.97-1.87c3.23,0,6.07,0.55,8.52,1.65c2.46,1.1,4.53,2.68,6.21,4.73l13.2-10.78   c-1.69-2.13-3.59-3.92-5.72-5.39c-2.13-1.47-4.34-2.64-6.66-3.52c-2.31-0.88-4.66-1.52-7.04-1.92c-2.38-0.4-4.67-0.61-6.88-0.61   c-6.09,0-11.7,0.95-16.83,2.86c-5.13,1.91-9.57,4.64-13.31,8.2c-3.74,3.56-6.66,7.86-8.75,12.92c-2.09,5.06-3.13,10.71-3.13,16.94   c0,6.23,1.04,11.88,3.13,16.94c2.09,5.06,5,9.37,8.75,12.92c3.74,3.56,8.18,6.29,13.31,8.2c5.13,1.91,10.74,2.86,16.83,2.86   c5.35,0,10.56-1.1,15.62-3.3c5.06-2.2,9.24-5.61,12.54-10.23L110.49,686C108.73,688.64,106.49,690.69,103.78,692.16z"/>
	<path class="st18" d="M217.52,639.41c-3.74-3.56-8.18-6.29-13.31-8.2c-5.13-1.91-10.74-2.86-16.83-2.86   c-6.09,0-11.7,0.95-16.83,2.86c-5.13,1.91-9.57,4.64-13.31,8.2c-3.74,3.56-6.66,7.86-8.75,12.92c-2.09,5.06-3.13,10.71-3.13,16.94   c0,6.23,1.04,11.88,3.13,16.94c2.09,5.06,5,9.37,8.75,12.92c3.74,3.56,8.18,6.29,13.31,8.2c5.13,1.91,10.74,2.86,16.83,2.86   c6.09,0,11.7-0.95,16.83-2.86c5.13-1.91,9.57-4.64,13.31-8.2c3.74-3.56,6.65-7.87,8.74-12.92c2.09-5.06,3.14-10.71,3.14-16.94   c0-6.23-1.04-11.88-3.14-16.94C224.17,647.28,221.26,642.97,217.52,639.41z M209.87,679.34c-1.14,3.04-2.77,5.68-4.89,7.92   c-2.13,2.24-4.68,3.98-7.65,5.22c-2.97,1.25-6.29,1.87-9.96,1.87c-3.67,0-6.98-0.62-9.96-1.87c-2.97-1.25-5.52-2.99-7.64-5.22   c-2.13-2.24-3.76-4.88-4.9-7.92c-1.14-3.04-1.71-6.4-1.71-10.07c0-3.59,0.57-6.93,1.71-10.01c1.14-3.08,2.77-5.74,4.9-7.97   c2.13-2.24,4.67-3.98,7.64-5.23c2.97-1.25,6.29-1.87,9.96-1.87c3.67,0,6.99,0.62,9.96,1.87c2.97,1.25,5.52,2.99,7.65,5.23   c2.13,2.24,3.76,4.89,4.89,7.97c1.14,3.08,1.71,6.42,1.71,10.01C211.58,672.95,211.01,676.3,209.87,679.34z"/>
	<polygon class="st18" points="313.11,684.46 312.89,684.46 279.78,630.34 256.46,630.34 256.46,708.22 273.62,708.22    273.62,652.78 273.84,652.78 307.83,708.22 330.27,708.22 330.27,630.34 313.11,630.34  "/>
	<path class="st18" d="M409.47,695.9c1.61-3.23,2.42-7,2.42-11.33c0-4.55-0.88-8.18-2.64-10.89c-1.76-2.71-3.98-4.88-6.66-6.49   c-2.68-1.61-5.55-2.86-8.63-3.74c-3.08-0.88-5.96-1.76-8.63-2.64c-2.68-0.88-4.9-1.94-6.66-3.19c-1.76-1.25-2.64-3.04-2.64-5.39   c0-1.47,0.37-2.71,1.1-3.74c0.73-1.03,1.69-1.85,2.86-2.47c1.17-0.62,2.42-1.08,3.74-1.38c1.32-0.29,2.6-0.44,3.85-0.44   c2.13,0,4.38,0.42,6.76,1.26c2.38,0.84,4.27,2.14,5.67,3.91l11.77-12.87c-3.3-2.93-7-5.02-11.11-6.27   c-4.11-1.25-8.36-1.87-12.76-1.87c-3.81,0-7.52,0.53-11.11,1.6c-3.59,1.06-6.76,2.66-9.51,4.78c-2.75,2.13-4.95,4.77-6.6,7.92   c-1.65,3.15-2.47,6.82-2.47,11c0,4.33,0.9,7.81,2.7,10.45c1.8,2.64,4.05,4.77,6.76,6.38c2.71,1.61,5.65,2.9,8.8,3.85   c3.15,0.95,6.09,1.91,8.8,2.86c2.71,0.95,4.97,2.11,6.77,3.46c1.8,1.36,2.69,3.21,2.69,5.55c0,1.39-0.35,2.6-1.04,3.63   c-0.7,1.03-1.61,1.87-2.75,2.53c-1.14,0.66-2.42,1.16-3.85,1.48c-1.43,0.33-2.84,0.5-4.24,0.5c-2.86,0-5.63-0.64-8.3-1.92   c-2.68-1.28-4.9-3.1-6.66-5.45l-12.21,13.42c3.74,3.45,7.77,5.94,12.1,7.48c4.33,1.54,9.02,2.31,14.08,2.31   c4.03,0,7.87-0.51,11.5-1.54c3.63-1.03,6.82-2.6,9.57-4.73C405.67,701.8,407.85,699.13,409.47,695.9z"/>
	<polygon class="st18" points="457.87,676.54 491.63,676.54 491.63,660.7 457.87,660.7 457.87,646.18 493.62,646.18 493.62,630.34    440.71,630.34 440.71,708.22 495.59,708.22 495.59,692.38 457.87,692.38  "/>
	<polygon class="st18" points="598.55,630.34 581.39,630.34 581.39,684.46 581.17,684.46 548.06,630.34 524.74,630.34    524.74,708.22 541.9,708.22 541.9,652.78 542.12,652.78 576.11,708.22 598.55,708.22  "/>
	<path class="st18" d="M670.88,667.19c-2.68-1.61-5.55-2.86-8.63-3.74c-3.08-0.88-5.96-1.76-8.63-2.64   c-2.68-0.88-4.9-1.94-6.66-3.19c-1.76-1.25-2.64-3.04-2.64-5.39c0-1.47,0.37-2.71,1.1-3.74c0.73-1.03,1.69-1.85,2.86-2.47   c1.17-0.62,2.42-1.08,3.74-1.38c1.32-0.29,2.6-0.44,3.85-0.44c2.13,0,4.38,0.42,6.76,1.26c2.38,0.84,4.27,2.14,5.67,3.91   l11.77-12.87c-3.3-2.93-7-5.02-11.11-6.27c-4.11-1.25-8.36-1.87-12.76-1.87c-3.81,0-7.52,0.53-11.11,1.6   c-3.59,1.06-6.76,2.66-9.51,4.78c-2.75,2.13-4.95,4.77-6.6,7.92c-1.65,3.15-2.47,6.82-2.47,11c0,4.33,0.9,7.81,2.7,10.45   c1.8,2.64,4.05,4.77,6.76,6.38c2.71,1.61,5.65,2.9,8.8,3.85c3.15,0.95,6.09,1.91,8.8,2.86c2.71,0.95,4.97,2.11,6.77,3.46   c1.8,1.36,2.69,3.21,2.69,5.55c0,1.39-0.35,2.6-1.04,3.63c-0.7,1.03-1.61,1.87-2.75,2.53c-1.14,0.66-2.42,1.16-3.85,1.48   c-1.43,0.33-2.84,0.5-4.24,0.5c-2.86,0-5.63-0.64-8.3-1.92c-2.68-1.28-4.9-3.1-6.66-5.45l-12.21,13.42   c3.74,3.45,7.77,5.94,12.1,7.48c4.33,1.54,9.02,2.31,14.08,2.31c4.03,0,7.87-0.51,11.5-1.54c3.63-1.03,6.82-2.6,9.57-4.73   c2.75-2.13,4.93-4.8,6.54-8.03c1.61-3.23,2.42-7,2.42-11.33c0-4.55-0.88-8.18-2.64-10.89C675.77,670.97,673.55,668.8,670.88,667.19   z"/>
	<polygon class="st18" points="736.05,659.49 719.55,630.34 698.21,630.34 727.47,675 727.47,708.22 744.63,708.22 744.63,675    773.89,630.34 753.54,630.34  "/>
	<path class="st18" d="M842.75,673.68c-1.76-2.71-3.98-4.88-6.66-6.49c-2.68-1.61-5.55-2.86-8.63-3.74   c-3.08-0.88-5.96-1.76-8.63-2.64c-2.68-0.88-4.9-1.94-6.66-3.19c-1.76-1.25-2.64-3.04-2.64-5.39c0-1.47,0.37-2.71,1.1-3.74   c0.73-1.03,1.69-1.85,2.86-2.47c1.17-0.62,2.42-1.08,3.74-1.38c1.32-0.29,2.6-0.44,3.85-0.44c2.13,0,4.38,0.42,6.76,1.26   c2.38,0.84,4.27,2.14,5.67,3.91l11.77-12.87c-3.3-2.93-7-5.02-11.11-6.27c-4.11-1.25-8.36-1.87-12.76-1.87   c-3.81,0-7.52,0.53-11.11,1.6c-3.59,1.06-6.76,2.66-9.51,4.78c-2.75,2.13-4.95,4.77-6.6,7.92c-1.65,3.15-2.47,6.82-2.47,11   c0,4.33,0.9,7.81,2.7,10.45c1.8,2.64,4.05,4.77,6.76,6.38c2.71,1.61,5.65,2.9,8.8,3.85c3.15,0.95,6.09,1.91,8.8,2.86   c2.71,0.95,4.97,2.11,6.77,3.46c1.8,1.36,2.69,3.21,2.69,5.55c0,1.39-0.35,2.6-1.04,3.63c-0.7,1.03-1.61,1.87-2.75,2.53   c-1.14,0.66-2.42,1.16-3.85,1.48c-1.43,0.33-2.84,0.5-4.24,0.5c-2.86,0-5.63-0.64-8.3-1.92c-2.68-1.28-4.9-3.1-6.66-5.45   l-12.21,13.42c3.74,3.45,7.77,5.94,12.1,7.48c4.33,1.54,9.02,2.31,14.08,2.31c4.03,0,7.87-0.51,11.5-1.54   c3.63-1.03,6.82-2.6,9.57-4.73c2.75-2.13,4.93-4.8,6.54-8.03c1.61-3.23,2.42-7,2.42-11.33   C845.39,680.02,844.51,676.39,842.75,673.68z"/>
	<path class="st18" d="M293.53,799.19c-2.68-1.61-5.55-2.86-8.63-3.74c-3.08-0.88-5.96-1.76-8.63-2.64   c-2.68-0.88-4.9-1.94-6.66-3.19c-1.76-1.25-2.64-3.04-2.64-5.39c0-1.47,0.37-2.71,1.1-3.74c0.73-1.03,1.69-1.85,2.86-2.47   c1.17-0.62,2.42-1.08,3.74-1.38c1.32-0.29,2.6-0.44,3.85-0.44c2.13,0,4.38,0.42,6.76,1.26c2.38,0.84,4.27,2.14,5.67,3.91   l11.77-12.87c-3.3-2.93-7-5.02-11.11-6.27c-4.11-1.25-8.36-1.87-12.76-1.87c-3.81,0-7.52,0.53-11.11,1.6   c-3.59,1.06-6.76,2.66-9.51,4.78c-2.75,2.13-4.95,4.77-6.6,7.92c-1.65,3.15-2.47,6.82-2.47,11c0,4.33,0.9,7.81,2.7,10.45   c1.8,2.64,4.05,4.77,6.76,6.38c2.71,1.61,5.65,2.9,8.8,3.85c3.15,0.95,6.09,1.91,8.8,2.86c2.71,0.95,4.97,2.11,6.77,3.46   c1.8,1.36,2.69,3.21,2.69,5.55c0,1.39-0.35,2.6-1.04,3.63c-0.7,1.03-1.61,1.87-2.75,2.53c-1.14,0.66-2.42,1.16-3.85,1.48   c-1.43,0.33-2.84,0.5-4.24,0.5c-2.86,0-5.63-0.64-8.3-1.92c-2.68-1.28-4.9-3.1-6.66-5.45l-12.21,13.42   c3.74,3.45,7.77,5.94,12.1,7.48c4.33,1.54,9.02,2.31,14.08,2.31c4.03,0,7.87-0.51,11.5-1.54c3.63-1.03,6.82-2.6,9.57-4.73   c2.75-2.13,4.93-4.8,6.54-8.03c1.61-3.23,2.42-7,2.42-11.33c0-4.55-0.88-8.18-2.64-10.89C298.42,802.97,296.2,800.8,293.53,799.19z   "/>
	<path class="st18" d="M380.75,767.23c-2.68-1.8-5.81-3.06-9.41-3.79c-3.59-0.73-7.41-1.1-11.44-1.1h-28.93v77.88h17.16v-30.36   h12.54c4.11,0,7.92-0.38,11.44-1.15c3.52-0.77,6.56-2.07,9.13-3.91c2.57-1.83,4.58-4.29,6.05-7.37c1.47-3.08,2.2-6.89,2.2-11.44   c0-4.62-0.79-8.45-2.37-11.49C385.56,771.45,383.43,769.03,380.75,767.23z M370.63,790.55c-0.7,1.21-1.61,2.16-2.75,2.86   c-1.14,0.7-2.42,1.19-3.85,1.48c-1.43,0.29-2.92,0.44-4.46,0.44h-11.44v-18.48h8.8c1.61,0,3.3,0.09,5.06,0.28   c1.76,0.18,3.35,0.6,4.78,1.26c1.43,0.66,2.6,1.6,3.52,2.81c0.92,1.21,1.38,2.8,1.38,4.78   C371.68,787.82,371.33,789.34,370.63,790.55z"/>
	<path class="st18" d="M433.17,762.34l-33.66,77.88h18.92l6.49-16.5h30.25l6.71,16.5h19.36l-33.88-77.88H433.17z M430.31,809.2   l9.46-24.2l9.57,24.2H430.31z"/>
	<path class="st18" d="M549.44,824.16c-2.71,1.47-5.83,2.2-9.35,2.2c-3.08,0-5.96-0.62-8.63-1.87c-2.68-1.25-5-2.99-6.98-5.22   c-1.98-2.24-3.54-4.88-4.68-7.92c-1.14-3.04-1.71-6.4-1.71-10.07c0-3.59,0.57-6.93,1.71-10.01c1.14-3.08,2.71-5.74,4.73-7.97   c2.02-2.24,4.4-3.98,7.15-5.23c2.75-1.25,5.74-1.87,8.97-1.87c3.23,0,6.07,0.55,8.52,1.65c2.46,1.1,4.53,2.68,6.21,4.73l13.2-10.78   c-1.69-2.13-3.59-3.92-5.72-5.39c-2.13-1.47-4.34-2.64-6.66-3.52c-2.31-0.88-4.66-1.52-7.04-1.92c-2.38-0.4-4.67-0.61-6.88-0.61   c-6.09,0-11.7,0.95-16.83,2.86c-5.13,1.91-9.57,4.64-13.31,8.2c-3.74,3.56-6.66,7.86-8.75,12.92c-2.09,5.06-3.13,10.71-3.13,16.94   c0,6.23,1.04,11.88,3.13,16.94s5,9.37,8.75,12.92c3.74,3.56,8.18,6.29,13.31,8.2c5.13,1.91,10.74,2.86,16.83,2.86   c5.35,0,10.56-1.1,15.62-3.3c5.06-2.2,9.24-5.61,12.54-10.23L556.15,818C554.39,820.64,552.15,822.69,549.44,824.16z"/>
	<polygon class="st18" points="613.02,808.54 646.79,808.54 646.79,792.7 613.02,792.7 613.02,778.18 648.77,778.18 648.77,762.34    595.86,762.34 595.86,840.22 650.75,840.22 650.75,824.38 613.02,824.38  "/>
	<g>
		<path class="st18" d="M450.19,554.41c-63.04,0-122.3-24.55-166.88-69.12c-44.57-44.57-69.12-103.84-69.12-166.88    s24.55-122.3,69.12-166.88c44.58-44.57,103.84-69.12,166.88-69.12s122.3,24.55,166.88,69.12c5.86,5.86,5.86,15.36,0,21.21    c-5.86,5.86-15.36,5.86-21.21,0c-38.91-38.91-90.64-60.34-145.66-60.34c-113.59,0-206,92.41-206,206s92.41,206,206,206    c55.02,0,106.76-21.43,145.66-60.34c5.86-5.86,15.36-5.86,21.21,0c5.86,5.86,5.86,15.36,0,21.21    C572.5,529.86,513.23,554.41,450.19,554.41z M818.71,318.41c0,8.28-6.72,15-15,15h-82.4c-7.23,46.28-47.36,81.8-95.64,81.8    s-88.41-35.52-95.64-81.8h-79.84c-8.28,0-15-6.72-15-15s6.72-15,15-15h79.84c7.23-46.28,47.36-81.8,95.64-81.8    s88.41,35.52,95.64,81.8h82.4C811.99,303.41,818.71,310.12,818.71,318.41z M560.59,303.41h130.16    c-6.83-29.63-33.4-51.8-65.08-51.8S567.42,273.78,560.59,303.41z M690.75,333.41H560.59c6.83,29.63,33.4,51.8,65.08,51.8    S683.93,363.04,690.75,333.41z"/>
	</g>
</g>
</svg>