<svg xmlns="http://www.w3.org/2000/svg" viewBox="0 0 395.12 91.93"><defs><style>.cls-1{fill:#5952ff;}</style></defs><title>uport logoLogo Blurple Horiz</title><g id="Layer_2" data-name="Layer 2"><g id="Layer_1-2" data-name="Layer 1"><circle class="cls-1" cx="6.48" cy="33.71" r="6.48"/><circle class="cls-1" cx="20.41" cy="14.16" r="6.48"/><circle class="cls-1" cx="43.69" cy="6.48" r="6.48"/><circle class="cls-1" cx="66.94" cy="14.24" r="6.48"/><circle class="cls-1" cx="80.8" cy="33.83" r="6.48"/><path class="cls-1" d="M43.62,38.93a6.48,6.48,0,1,1-6.48,6.48,6.48,6.48,0,0,1,6.48-6.48m0-12.93A19.41,19.41,0,1,0,63,45.41,19.44,19.44,0,0,0,43.62,26Z"/><path class="cls-1" d="M43.62,90.8A45.2,45.2,0,0,1,.63,60a1,1,0,0,1,.66-1.27l10.43-3.29A1,1,0,0,1,13,56.1a32.48,32.48,0,0,0,61.33,0,1,1,0,0,1,1.24-.63L86,58.75A1,1,0,0,1,86.61,60,45.2,45.2,0,0,1,43.62,90.8Z"/><circle class="cls-1" cx="185.1" cy="46.18" r="9.37"/><path class="cls-1" d="M166.73,20.35V71.48H151.39V66.67c-2.76,3.79-7.88,6.24-14.63,6.24-10.33,0-19.12-7.36-19.12-21.17V20.35H133V49.49c0,6.34,4,9.31,8.9,9.31,5.62,0,9.51-3.27,9.51-10.53V20.35Z"/><path class="cls-1" d="M258.49,45.91c0,15.24-11,27-24.44,27-6.85,0-11.86-2.35-15.24-6.24V91.93H203.47V20.35h15.34v4.8c3.38-3.88,8.39-6.24,15.24-6.24C247.45,18.91,258.49,30.68,258.49,45.91Zm-15.34,0c0-7.67-5.11-12.47-12.17-12.47s-12.17,4.8-12.17,12.47S223.93,58.39,231,58.39,243.15,53.58,243.15,45.91Z"/><path class="cls-1" d="M265.71,45.91a27.1,27.1,0,1,1,27.1,27A26.81,26.81,0,0,1,265.71,45.91Zm38.87,0c0-7.26-5.12-12.06-11.77-12.06s-11.76,4.8-11.76,12.06S286.17,58,292.81,58,304.58,53.17,304.58,45.91Z"/><path class="cls-1" d="M359.37,19.32V36.71C353,35.69,344,38.24,344,48.37V71.48H328.7V20.35H344v9.1C346.08,22.6,352.93,19.32,359.37,19.32Z"/><path class="cls-1" d="M384.59,35.07v18.1c0,4.4,3.78,4.81,10.53,4.4V71.48c-20,2-25.87-4-25.87-18.31V10.63L384.59,6V20.35h10.53V35.07Z"/></g></g></svg>